<?xml version="1.0" standalone="no"?>
<!DOCTYPE svg PUBLIC "-//W3C//DTD SVG 20010904//EN"
 "http://www.w3.org/TR/2001/REC-SVG-20010904/DTD/svg10.dtd">
<svg version="1.0" xmlns="http://www.w3.org/2000/svg"
 width="3000.000000pt" height="3000.000000pt" viewBox="0 0 3000.000000 3000.000000"
 preserveAspectRatio="xMidYMid meet">
<metadata>
Created by potrace 1.14, written by Peter Selinger 2001-2017
</metadata>
<g transform="translate(0.000000,3000.000000) scale(0.100000,-0.100000)"
fill="#000000" stroke="none">
<path d="M28443 23338 c-89 -86 -693 -686 -1856 -1844 -739 -736 -851 -844
-877 -844 -34 0 24 -55 -660 620 -287 283 -531 518 -543 521 -12 3 -30 3 -39
0 -22 -8 -533 -513 -548 -541 -7 -12 -9 -32 -6 -44 3 -13 401 -420 883 -904
815 -819 880 -882 911 -882 31 0 55 21 257 223 2020 2015 3149 3146 3156 3165
6 17 5 30 -6 45 -8 12 -135 142 -281 290 -209 211 -270 267 -290 267 -19 0
-48 -21 -101 -72z"/>
<path d="M22296 22428 c-8 -13 -49 -131 -91 -263 -43 -132 -99 -305 -125 -385
-26 -80 -87 -266 -135 -415 -48 -148 -104 -322 -125 -385 -20 -63 -81 -250
-134 -415 -53 -165 -112 -345 -130 -400 -29 -85 -111 -339 -262 -805 -18 -58
-67 -206 -107 -330 -41 -124 -104 -320 -142 -437 -44 -136 -74 -214 -84 -218
-9 -4 -3290 -6 -7291 -5 -6624 0 -7280 -1 -7328 -15 -60 -18 -129 -78 -149
-130 -10 -23 -143 -544 -158 -615 -2 -8 -20 -80 -40 -160 -20 -80 -38 -152
-40 -160 -2 -8 -22 -89 -46 -180 -48 -188 -53 -252 -21 -297 48 -67 -40 -63
1330 -63 1166 0 1241 -1 1261 -17 12 -10 22 -29 22 -43 1 -14 -49 -225 -110
-470 -62 -245 -114 -452 -116 -460 -1 -8 -134 -539 -294 -1180 -161 -641 -293
-1172 -294 -1180 -2 -8 -12 -47 -22 -87 l-19 -71 -2173 0 c-2056 0 -2174 1
-2194 17 -14 11 -22 28 -21 47 0 22 151 646 201 834 23 86 72 279 76 299 2 9
78 315 169 681 92 366 168 674 171 685 12 56 16 72 29 119 8 28 17 62 20 76 3
14 91 369 196 790 106 421 193 772 195 780 2 8 38 152 81 320 42 168 77 323
77 346 0 45 -21 84 -61 111 -26 17 -75 18 -891 21 -952 3 -916 5 -994 -59 -52
-43 -72 -87 -112 -251 -20 -79 -38 -150 -40 -158 -17 -68 -108 -438 -110 -450
-2 -8 -22 -87 -44 -175 -23 -88 -44 -173 -47 -189 -2 -16 -7 -32 -9 -36 -2 -3
-6 -17 -9 -31 -3 -13 -15 -62 -26 -109 -12 -47 -23 -92 -25 -100 -2 -8 -36
-143 -75 -300 -39 -157 -73 -292 -75 -300 -2 -8 -11 -44 -20 -80 -9 -36 -18
-72 -20 -80 -2 -8 -74 -298 -160 -645 -452 -1820 -557 -2242 -560 -2258 -2
-10 -7 -27 -10 -37 -3 -10 -8 -27 -10 -37 -2 -10 -33 -137 -70 -283 -37 -146
-68 -272 -70 -280 -2 -8 -8 -35 -15 -60 -7 -25 -13 -52 -15 -60 -2 -8 -29
-116 -60 -240 -31 -124 -59 -236 -61 -250 -3 -14 -11 -47 -18 -75 -22 -87 1
-156 64 -187 33 -17 250 -18 4105 -18 2620 0 4082 3 4104 10 52 15 104 55 135
104 15 25 28 47 27 50 0 3 6 21 15 41 8 19 12 35 9 35 -2 0 0 11 5 26 6 14 12
39 15 56 3 17 37 153 75 302 38 149 71 282 74 296 3 14 43 178 90 365 48 187
88 351 91 365 3 14 10 41 15 60 6 19 13 44 15 56 3 11 68 274 146 585 77 310
143 572 145 583 2 10 10 42 18 70 8 28 17 62 19 76 3 14 13 54 22 90 9 36 19
74 21 84 2 10 8 33 13 50 6 17 12 42 15 56 2 14 61 252 131 530 70 278 128
512 130 520 26 113 158 632 167 654 6 15 25 37 42 47 30 18 64 19 754 19 684
0 723 -1 718 -17 -3 -10 -125 -499 -271 -1088 -145 -588 -270 -1088 -276
-1110 -16 -61 -28 -105 -39 -155 -6 -25 -15 -61 -20 -80 -5 -19 -71 -282 -146
-585 -74 -302 -203 -820 -285 -1150 -83 -330 -152 -609 -155 -620 -2 -11 -12
-54 -22 -95 -27 -115 -9 -180 61 -214 32 -15 290 -16 3336 -16 l3302 0 48 25
c92 46 130 106 166 259 2 10 30 120 61 245 31 124 57 233 59 241 2 8 8 35 15
60 7 25 13 52 15 60 2 8 17 71 35 140 18 69 33 132 35 140 2 8 15 62 30 120
39 153 38 152 37 194 -2 49 -29 95 -70 119 -31 18 -104 19 -2367 19 -2209 0
-2336 1 -2357 17 -13 11 -21 28 -20 47 0 16 33 155 72 309 39 154 73 287 75
295 26 112 51 194 66 220 39 64 -117 59 2204 60 1579 0 2127 3 2156 12 47 14
113 68 136 112 14 27 20 44 37 116 2 8 25 96 51 195 25 99 48 187 50 195 2 8
15 62 30 120 15 58 28 112 30 120 2 8 17 67 34 130 87 338 111 440 111 471 0
44 -27 97 -63 123 l-28 21 -2150 5 c-1896 4 -2151 7 -2159 20 -18 28 -10 75
66 375 42 165 83 329 90 364 8 35 23 83 33 107 36 81 -200 74 2411 74 l2331 0
92 -68 c50 -38 225 -165 387 -282 273 -198 461 -334 733 -533 61 -44 107 -85
107 -94 0 -15 -95 -313 -255 -798 -120 -365 -207 -631 -209 -640 -2 -5 -6 -17
-9 -25 -3 -8 -67 -204 -143 -435 -75 -231 -155 -478 -179 -550 -23 -71 -98
-299 -165 -505 -126 -388 -146 -448 -274 -837 -42 -127 -76 -241 -76 -251 0
-26 23 -44 46 -36 16 6 302 209 494 350 25 18 101 74 170 123 69 50 136 98
149 108 13 10 34 25 47 33 29 19 426 306 439 318 6 5 46 33 88 63 42 29 77 57
77 61 0 4 4 8 10 8 5 0 61 37 123 83 129 94 155 113 331 239 206 149 216 156
771 558 700 506 761 550 770 550 8 0 114 -68 125 -80 3 -3 82 -61 175 -128 94
-67 175 -125 180 -130 17 -14 575 -416 598 -432 22 -14 382 -275 539 -389 42
-31 86 -63 98 -71 13 -8 44 -31 69 -50 25 -20 89 -66 141 -102 97 -68 487
-350 505 -365 6 -5 53 -39 105 -76 52 -36 100 -71 106 -76 6 -5 55 -41 110
-79 54 -39 104 -75 109 -79 6 -5 71 -53 145 -106 224 -161 352 -253 413 -297
56 -41 58 -41 82 -26 14 9 25 19 25 23 0 8 -119 379 -131 408 -4 11 -63 189
-130 395 -66 206 -143 443 -171 525 -27 83 -51 155 -52 160 -1 6 -38 118 -81
250 -44 132 -79 242 -80 245 0 3 -24 75 -52 160 -117 353 -293 897 -293 904 0
4 -6 22 -14 39 -7 18 -24 68 -38 112 -65 204 -260 802 -268 822 -12 29 10 56
86 108 33 22 64 43 69 48 27 21 117 87 290 212 105 76 206 150 225 164 19 14
44 33 56 41 25 17 523 380 539 392 6 5 60 44 120 88 61 43 115 83 120 87 6 4
51 37 100 73 103 74 325 236 340 248 6 4 75 55 155 112 80 57 147 107 150 110
3 3 34 26 70 51 36 24 67 46 70 49 3 3 212 156 465 340 640 465 595 430 595
462 0 17 -6 28 -17 32 -10 2 -976 4 -2147 4 -2069 0 -2129 0 -2140 18 -5 11
-20 48 -32 84 -45 136 -166 505 -168 515 -1 6 -55 172 -120 370 -65 198 -145
443 -178 545 -33 102 -71 217 -84 255 -14 39 -27 78 -29 88 -2 10 -13 44 -24
75 -10 31 -70 212 -131 402 -61 190 -121 371 -132 404 -11 32 -21 63 -22 70
-1 6 -9 31 -18 56 -9 25 -72 214 -138 420 -238 731 -250 768 -266 774 -25 10
-33 7 -48 -16z"/>
</g>
</svg>
