<svg xmlns="http://www.w3.org/2000/svg" xmlns:xlink="http://www.w3.org/1999/xlink" width="100" height="100" viewBox="0 0 100 100"><defs><clipPath id="b"><rect width="100" height="100"/></clipPath></defs><g id="a" clip-path="url(#b)"><path d="M0,0H75a0,0,0,0,1,0,0V7a5,5,0,0,1-5,5H5A5,5,0,0,1,0,7V0A0,0,0,0,1,0,0Z" transform="translate(13 69)" fill="#fff"/><rect width="75" height="12" transform="translate(13 44)" fill="#fff"/><path d="M5,0H70a5,5,0,0,1,5,5v7a0,0,0,0,1,0,0H0a0,0,0,0,1,0,0V5A5,5,0,0,1,5,0Z" transform="translate(13 19)" fill="#fff"/></g></svg>