<svg id="us_map_svg_svg436" xmlns="http://www.w3.org/2000/svg" width="917.500047" height="582.8" viewBox="0 0 917.500047 582.8">  
<g id="states">
  <path id="AL-1"  d="M633.199998,462.199994l.400024-7.299988-.900024-1.200012-1.700012-.700012-2.5-2.799988.5-2.899994,48.799988-5.100006-.700012-2.200012-1.5-1.5-.5-1.399994.599976-6.299988-2.400024-5.700012.5-2.600006.299988-3.700012,2.200012-3.799988-.200012-1.100006-1.700012-1v-3.200012l-1.799988-1.899994-2.900024-6.100006-12.900024-45.799988-45.700012,4,1.299988,2-1.299988,67,4.400024,33.200012.900024-.5h1.299988c0,.100006.599976.5.599976.5h.799988c0-.100006,2-3.899994,2-3.899994v-2.299988l1.099976-1.100006,1.400024.5,3.400024,6.399994v.899994l-3.299988,2.200012,3.5-.399994,4.900024-1.600006,1.099976-.600006h.000122Z" />
  <path id="AK-1"  d="M5.999998,566.8h2.400001l.700001.700012-1,1.200012-1.9.200012-2.5,1.299988H0l2.2-1,.3-1.099976,2.5-.299988,1-1-.000002-.000061ZM14.299998,565.099988l1.299999.5h.9l.5,1.200012.299999-.599976.9.200012,1.1,1.5v.5l-4.200001,1.900024h-2.4l-1-.599976-1.1.700012h-2l-1.1-1.400024,4.699999-.5,2.1-3.400024.000004-.000061ZM19.699998,565.000012h1l.700001.799988v1h-1.299999l-.9-1s.5-.799988.499998-.799988ZM22.199998,565.3h1.299999v.900024l-1.099998.599976v-1.5h-.200001ZM22.499997,567.500012h3.400002l.200001,1h-1.299999l-.299999-.400024-.799999.599976-.400002-.599976-.900002-.200012v-.400024l.099998.000061ZM188.800004,575.099988h2.100006l-1,2h-1.100006l-.399994-.900024.5-1.299988M187.800004,572.000012l.600006-1.299988-.199997-2.299988,2.399994-.5,4.5,4.400024,1.300003,3.400024,1.899994,1.599976.300003,5.099976h-1.399994l-1.300003-2.299988-3.100006-2.400024h-.600006l1.100006,2.799988,1.699997.200012.199997,2.099976h-.899994l-4.100006-4.299988v-.900024c-.100006,0,1.800003-1,1.800003-1v-1l-.5-.799988-1.600006-.599976-1.699997-1.299988h1.399994l.5-.299988-.600006-.900024-.600006.5-1.100006-.200012h.000031ZM184.199998,562.899976h1.300003l2.399994,2.599976-.199997.799988h-.800003l-.100006,1.700012.5.5v1.5l-.800003.299988-.399994,1.200012-.800003-.400024-.399994-2.200012,1.100006-1.400024-2.100006-2.200012v-1.200012c.100006,0,.300003-1.200012.300003-1.200012v.000122ZM185.699998,561.399976l1.899994.200012h2.5l3.399994,3.299988-.199997.5-1.100006.599976-1.100006-.200012v-.700012c-.100006,0-1.300003-1.599976-1.300003-1.599976l-.300003.700012,1,1.299988-.199997,1.200012h-.800003l-1.300003.099976v-1.700012c-.100006,0-2.699997-2.799988-2.699997-2.799988l.199997-.900024.000031.000061ZM173.000001,552.500012l.899994-.400024h1.600006l.699997-.5,4.100006,2.200012v1.5c.100006,0-.399994.5-.399994.5h-.800003l-1.399994-.700012,1.100006,1.299988h1.800003l.5,2h-.899994l-2.199997-1.5-1.100006-.200012.600006,1.299988v.900024c.100006,0,.899994-.599976.899994-.599976l1.699997,1.200012h1.300003l-.199997.700012,1.899994,4.299988v3.400024l.399994,2.099976-.800003.299988-1.199997-2-.5-1.5-1.600006-1.599976-.199997-2.700012-.600006-1.700012h-.699997l.300003,1.099976v.5l-1.399994,1v-3.299988c.100006,0-1.5-1.599976-1.5-1.599976l-1.300003-2.299988-1.199997-1.200012.199997-2.5h-.000015ZM180.199998,550.200025l1.100006,1.799988h2.399994l1,2-.600006.599976,2,3.200012v1.299988l-1.199997.799988v.700012l-2,1.900024-.5-1.400024v-1.299988c-.100006,0,.5-.700012.5-.700012v-1.099976l-1.5-1.900024-.5-3.700012-.899994-1.5.199997-.700012v.000061ZM123.500001,531.899976l-4,4.099976v1.599976l2.100006-.799988.800003-1.900024,2.199997-2.400024-1.100006-.599976v.000061ZM91.899995,548.500012v.599976l1.800003,1.200012.199997-1.400024.599998.900024h3.5l.699997-.5.199997-1.799988-.5-.700012h-1.400002v-.799988l.400002-.599976v-.400024l-1.5-.299988-3.300003,3.599976s-.699997.200012-.699989.200012ZM83.799996,554.700025l1.5,5.799988h2.099998l2.400002-2.5.300003,1.200012,6.300003-4,.699997-1-1-1.099976v-.700012l.5-1.299988h-.900002l-2,.900024v-1.200012l-2.699997-.599976-2.400002.299988-.199997,3.400024-.800003-2h-1.5l-1,.5-1.300003,2.299988v-.000061ZM81.599999,562.899976v-.700012l2.199997-1.299988.599998.299988,1.300003.200012,1.300003,1.200012-2.199997-.200012-.400002-.599976-1,.599976-1.800003.5ZM76.399995,566.200025l-1.099998.799988,1.5,1.400024.800003-.700012v-1.299988s-1.199997-.200012-1.200005-.200012ZM70.099999,558.3h1.400002l.400002.700012h-1.800003v-.700012ZM56.199998,570.200025v.5h.699997v-.5h-.699997ZM55.799996,567.000012l-1,1v.5l.699997,1.099976,1-1h-.699997v-1.599976ZM53.799996,566.200025l-.299999,1h-1.299999l-.400002.299988v1.299988l-.5.900024h.599998l.700001-.900024h.799999l.900002-1.099976.199997-1.299988s-.700001-.200012-.699997-.200012ZM49.399999,564.200025l-.200001,1.799988,1.400002.799988,1.200001-.599976v-1l1.700001-.299988v-.599976l-1-.200012-.700001.599976-.900002-.5h-1.5ZM44.499997,564.099988l1,.700012-.299999,1.200012-1.400002-1.099976.700001-.799988v-.000061ZM40.299996,565.399976h1.400002l-.700001.900024-.700001-.900024ZM36.799996,568.399976l1.799999,1.099976h-1.700001v-1.099976h-.099998ZM11.399999,537.200025l1.200001.599976-.799999.599976-.4-1.200012-.000002.000061ZM10.699998,530.899976l.4,1.200012.799999-1.200012s-1.200001,0-1.199999,0ZM34.999997,511.599988h1.5l.900002.299988,1.099998-.5h1.299999l1.599998.700012.799999,1.900024v.900024l-1.299999,2-2.400002-.200012-2.099998-1.799988-1-.400024-1.099998-2,.700001-.900024ZM13.899999,497.199994v1.899994c.1,0,2.1,2,2.1,2v.5l-.799999-.200012-1.700001-.799988-.299999-1.100006-.299999-1.600006,1-.700012-.000002.000031ZM32.199998,473.900006v1.200012l1.900002,1.799988h2.299999l.599998,1.100006v1.600006l2.099998,1.899994,1.799999,1.200012v.700012l-.799999,1.100006-1.400002-1.200012h-2.099998c0,.100006-.799999-.700012-.799999-.700012l-.900002-2.100006-1.5-2.200012h-2.599998c0-.100006-1-.799988-1-.799988l1-2.100006,1.400002-1.5ZM48.999997,469.400006h1v1.100006h-.900002v-1.100006h-.099998ZM65.199998,489.099988h.900002v1.299988l-1.699997-.5s.800003-.799988.799995-.799988ZM193.000001,566.8l-1.199997.400024v1.099976c-.100006,0,1.100006,0,1.100006,0v-1.5h.099991ZM35.399999,562.3l-1.299999-.400024-4.099998.599976-2.799999,1.400024v1.900024l1.799999.700012,1.5-.900024h1.700001l4.700001,1.299988v-1.299988l-1.5-1.099976s0-2.200012-.000004-2.200012ZM37.499997,564.599988l-.400002-1.400024,1.200001.200012v1.400024h1.900002l.400002-2.5.299999,2.400024h2.5l3.200001-3.400024h.799999l-.700001,1.400024,1.400002.900024,4.200001-.200012,2.600002-1.200012h1.400002l.300003,1.400024.599998-.5.400002-1.400024,5.900002.200012,1.900002-1.599976-1.300003-1.099976.599998-1.200012,2.599998.200012-.199997-1.200012,2.5.200012.699997-1.099976,1.099998.200012,4.599998-1.900024.199997-1.700012,5.599998-2.400024,2-1.900024,1.199997-.599976,1.300003.799988,2.300003-.900024,1.099998-1.900024.5-1.299988,1.699997-.900024,1.5-.700012.400002-1.400024-1.099998-1.700012-2.199997-.200012-.199997-1.299988.800003-1.599976,1.400002-.200012,1.300003-1.5h1.900002l3.400002-3.299988.400002-1.400024,1.5-2.299988,3.800003-4.099976,2.5-.900024,1.900002-.900024,2.099998.799988,1.400002,2.599976h-1.5l-1.400002-1.5-3,2h-1.699997l-.199997,3.200012-3.099998,4.900024.599998,2h2.300003l-.599998,1h-1.400002l-2.400002,1.900024v.900024l1.900002,1,3.400002-.599976,1.400002-1.700012h1.400002l3-1.599976.5-2.299988h1.599998l6.300003.700012,1-1.099976,1-4.5-1.600006,1.099976.600006-2.200012-1.600006-1.400024.800003-1.5v1.5h3.5l.699997-1h1.600006l-.300003,1.599976h1.899994l-1.899994,1.400024,4.100006,1.099976-3.5.400024-1.300003,1.200012.899994,1.400024,4.600006-1.700012,2.300003,1.700012.699997-.900024.600006,1.400024,4,2.299988h2.899994l3.899994-.5,4.300003,1.099976,2,1.900024,4.5.400024,1.800003-1.5.800003,2.400024-1.800003.700012,1.199997,1.200012,7.399994,3.799988,1.399994,2.5,5.399994,4.099976,3.300003-2-.600006-2.200012-3.5-2,3.100006,1.200012.5-.700012.899994,1.299988v2.700012l2.100006-.599976,2.100006,1.799988-2.5-9.799988,1.199997,1.299988,1.399994,6,2.199997,2.5,2.399994-.400024,1.800003,3.5h.899994l.600006,5.599976,3.399994.5,1.600006,2.200012,1.800003,1.099976.399994,2.799988-1.800003,2.599976,2.899994,1.599976,1.199997-2.400024-.199997,3.099976-.800003.900024,1.399994,1.700012.699997-2.400024-.199997-1.200012.800003.200012.600006,2.299988-1,1.400024.600006,2.599976.5.400024.300003-1.599976.699997.599976-.300003,2,1.199997.200012-.399994.900024h1.699997v-1.099976h-1v-1.700012c.100006,0-.699997-.599976-.699997-.599976l1.699997-.299988.5-.799988v-1.599976l.5,1.299988-.600006,1.799988,1.199997,3.900024h1.800003l2.199997-4.099976v-1.900024c.100006,0-1.199997-4-1.199997-4v-1.200012c-.100006,0,.399994-1.200012.399994-1.200012l-.699997-.700012h-1.699997l-2.5-1.900024h-1.699997l-2-1.400024h-1.5l-.5-1.599976-1.399994-.299988-.199997-1.5-1-.5v-1.700012c.100006,0-5-7.400024-5-7.400024l-1.800003-1.5v-1.200012l-4.300003-3.5-.699997-1.099976-1.600006-2-1.899994-.599976v-2.200012l-1.199997-1.299988-1.699997-.700012-2.100006,1.299988-1.600006,2.099976-.399994,2.400024h-1.5l-2.5,2.799988-.800003-.299988v-2.5l-2.399994-2.200012-2.300003-2-.5-2-2.5-1.299988.199997-2.200012h-2.800003l-.699997,1h-1.199997l-.699997-.700012-1.199997.799988-1.800003-1.200012v-85.799988l-6.899994-4.100006-1.800003-.5-2.199997,1.100006h-2.199997c0,.100006-2.300003-1.5-2.300003-1.5l-4.300003-.600006-5.800003-3.600006-5.699997-.399994-2,.5-.199997-1.799988-1.800003-.700012,1.099998-1-.199997-.899994-3.199997-1.100006h-2.400002l-.400002.399994-.900002-.600006v-2.600006l-.699997-.899994-2.5,2.899994h-.800003v-.899994l1.699997-.799988v-.799988l-1.900002-2.399994h-1.099998c0-.100006-4.5,3-4.5,3h-3.900002l.400002-.899994h-1.800003c0-.100006-5.199997,3.299988-5.199997,3.299988h-1.800003l-.599998-.799988-2.699997,1.5-3.599998,3.700012-2.800003,2.700012-1.5,1.200012h-2.599998c0,.100006-2.199997-.299988-2.199997-.299988l-2.300003-1.299988-2.800003,3.899994v2.399994l2.5,2.399994,2.099998,4.5.199997,5.299988,2.900002,2,3.400002.399994.699997.799988-1.5,2.299988.699997,2.700012-1.699997-2.600006v-2.399994l-1.5-.299988v1.200012l.800003,2.100006,2.900002,3.700012h-1.400002l-2.199997,1.100006-6.199997-2.5v-2l1.300003-1.299988v-1.399994l-2.099998-.5-2.300003.200012-4.800003.200012,1.5,2.299988-1.900002-1.799988-8.400002,1.200012-.799999,1.5,4.899998,4.700012-.800003,1.399994-.300003,2-.700001.799988v1.899994l4.299999,3.600006,4.099998.200012,4.599998,1.899994h2l.800003-.600006h3.800003c0,.100006,0-.700012,0-.700012l1.199997,1.100006v2l-2.400002-.100006v3.299988l.599998,3.200012-2.900002,2.700012h-1.900002c0-.100006-2-.899994-2-.899994h-1c0,.100006-3.099998,2.200012-3.099998,2.200012l-1.699997.200012-1.400002-2.799988h-3.099998l-2.200001,2-.5,1.799988-3.299999,1.799988-5.299999,4.299988-.299999,3.100006.700001,2.200012,1,1.199982,1-.400024.900002,1-.799999.599976-1.5.900024,1.099998,1.5-2.599998,1.099976.799999,2.200012,1.700001,2.299988.799999,4.099976,4,1.5,2.599998-.799988,1.700001-1.099976.5,2.099976.300003,4.400024-1.900002,1.400024v4.400024l-.599998.900024h-1.700001l1.700001,1.200012h2.099998l.400002-1.099976,4.599998-.599976,2,2.599976,1.300003-.700012,1.300003,5.099976,1,.5,1-.700012v-2.400024l1-1,.699997,1.099976.199997,1.599976,1.599998.400024,4.699997-1.200012.199997,1.200012-2,1.099976-1.599998,1.700012-2.800003,7-4.300003,2-1.400002,1.5-.300003,1.400024-1-.599976-9.299999,3.299988-1.799999,4.099976-1.299999-.400024.5-1.099976-1.5-1.400024-3.5-.200012-5.299999,3.200012-2.200001,1.299988h-2.299999l-.5,2.400024h1.700001l.100014-.100037Z" />
  <path id="AZ-1"  d="M129.800004,382.400006l3-2.200012.800003-2.399994-1-1.600006-1.800003-.200012-1.100006-1.600006,1.100006-6.899994,1.600006-.299988,2.399994-3.200012,1.600006-7,2.399994-3.600006,4.800003-1.700012,1.300003-1.299988-.399994-1.899994-2.300003-2.5-1.199997-5.799988-1.399994-1.799988-1.300003-3.399994.899994-2.100006,1.399994-3,.5-2.899994-.5-4.899994,1-13.600006,3.5-.600006,3.699997,1.399994,1.199997,2.700012h2l2.399994-2.899994,3.399994-17.5,46.199997,8.200012,40,6-17.399994,124.100006-37.300003-5.399994-64.199997-37.5.5-2.899994,2-1.799988h2.199997l.000015.099945Z" />
  <path id="AR-1"  d="M574.40001,361.8l.900024-2.200012,1.200012.5.700012-1-.799988-.700012.299988-1.5-1.099976-.899994.599976-1v-1.5l-1.200012-.100006.799988-.799988,1.299988.799988.299988-1.399994-.400024-1.100006v-.700012l2.099976.600006-.400024-1.5,1.599976-1.299988-.5-.899994h-1.099976c0,.100006-.599976-.799988-.599976-.799988l.900024-.899994,1.599976-.200012.5-.799988,1.400024-.200012v-.799988l-1-.899994v-.5h1.5l.400024-.700012-1.400024-1v-.600006l-11.299988.799988,2.799988-5.100006,1.700012-1.5v-2.200012l-1.599976-2.5-39.799988,2-39.100006.700012,4.100006,24.399994-.700012,39,2.600006,2.299988,2.800018-1.299988,3.200012.799988.200012,11.899994,52.299988-1.299988,1.200012-1.5.5-3-1.5-2.299988-.5-2.200012.900024-.700012v-.799988l-1.700012-1.100006v-.700012l1.5-.899994-1.200012-1.100006,1.700012-7.100006,3.400024-1.600006v-.799988l-1.099976-1.399994,2.900024-5.399994h1.900024l1.5-1.200012-.299988-5.200012,3.099976-4.5,1.799988-.600006-.5-3.100006,1.599976-.700012-.000122.000092Z" />
  <path id="CA-1"  d="M59.599999,360.400006l3.400002,5.200012h-1.400002c0,.100006-1.800003-1.799988-1.800003-1.799988l-.199997-3.399994v-.000031ZM61.500001,350.599988l1.800003,4.100006,2.599998,1,.699997-.600006-1.300003-2.5-2.599998-2.399994-1.199997.399994ZM41.599999,331.599988v2.399994l2,1.200012,4.400002-.200012,1-1-3.099998-.200012-4.299999-2.200012-.000004.000031ZM35.699998,331.699994l3.299999.5,1.400002,2.200012h-3.799999l-.900002-2.700012ZM83.599999,377.199994l-1-3,.199997-3-.400002-7.899994-1.800003-4.799988-1.199997-1.399994-.599998-1.5-7-8.600006h-3.599998c0,.100006-2-1.799988-2-1.799988l1.099998-1.799988-.699997-3.700012-2.199997-1.200012-3.900002-.600006-2.800003-1.299988-1.5-1.899994-4.5-6.600006-2.700001-2.200012-3.700001-.5-3.099998-2.299988-4.700001-1.5-2.799999-.299988-2.5-2.5.200001-2.799988.799999-4.799988,1.799999-5.100006-1.400002-1.600006-4-9.399994-2.700001-3.700012-.400002-3-1.599998-2.299988.200001-2.5-2-5-2.9-2.700012.6-7.100006,2.400002-.799988,1.799999-3.100006-.400002-3.200012-1-.899994h-2.5l-2.5-3.299988-1.5-3.5v-7.5l1.200001-4.199997.200001-2.100006,2.5.199997v1.600006c-.1,0-.9.699997-.9.699997v2.5l3.699999,3.199997v-4.699997l-1.400002-3.399994.5-1.100006-1-1.699997,2.799999-1.5-1.900002-3-1.4.5-1.5,3.800003.5,1.300003-.799999,1h-.9c0-.100006-5.4-6.199997-5.4-6.199997l.700001-5.600006-1.1-3.899994-6.5-12.800003.799999-10.699997,2.299999-3.600006.200001-6.399994-5.5-11.100006.3-5.199997,6.900001-7.5,1.700001-2.399994v-1.399994c-.1,0,3.9-9.199997,3.9-9.199997v-8.399994c.1,0,1-2.5,1-2.5l66.099997,18.600006-16.400002,63.099991,1.099998,3.5,70.400009,105-.899994,2.100006,1.300003,3.399994,1.399994,1.799988,1.199997,5.799988,2.300003,2.5.399994,1.899994-1.300003,1.299988-4.800003,1.700012-2.399994,3.600006-1.600006,7-2.399994,3.200012-1.600006.299988-1.100006,6.899994,1.100006,1.600006,1.800003.200012,1,1.600006-.800003,2.399994-3,2.200012h-2.199997c0-.100006-44-5.200012-44-5.200012l.000008-.000061Z" />
  <path id="CO-1"  d="M364.800004,318.099988l-16.5-1-51.700012-4.799988-52.600006-6.5,11.5-88.300003,44.899994,5.699997,37.5,3.399994,33.100006,2.399994-1.399994,22.100006-4.799988,67Z" />
  <path id="FL-1"  d="M741.90001,439.900006l-4-.700012-1.700012-.899994-2.200012,1.399994v2.5l1.400024,2.100006-.5,4.299988-2.099976.600006-1-1.100006-.599976-3.200012-50.099976,3.299988-3.299988-6-48.799988,5.100006-.5,2.899994,2.5,2.799988,1.700012.700012.900024,1.200012-.400024,7.299988-1.099976.600006.5.399994,1-.299988.700012-.799988,10.5-2.700012,9.200012-.5,8.099976,1.899994,8.5,5,2.400024.799988,2.200012,2v2.700012h2.299988l1.900024-1h2.5c0,.100006,2-.700012,2-.700012l2.900024-2,3.099976-2.899994,1.099976-.399994.599976.5h1.400024l.5-.799988-.5-1.200012-.599976-.600006.200012-.799988,2-1.100006,5-.399994.799988,1h1c0,.100006,2.299988,1.100006,2.299988,1.100006l3,1.799988,1.200012,1.700012,1.099976,1.200012,2.799988,1.399994v2.399994l2.799988,1.899994h1c0,.100006,1.599976,1.5,1.599976,1.5l.700012,1.600006,1,.200012.799988,2.100006.700012.600006,1-1.100006h2.900024c0,.100006.5,1.5.5,1.5l1.099976.899994v1.299988l2.900024,2.200012.200012,9.600006-1.799988,5.799988,1,1.200012-.200012,3.399994-.799988,1.399994.700012,1.200012,2.299988,2.299988.299988,1.5.799988,1-.400024-1.900024,1.299988-.599976.799988-3.600006-3-1.200012v-.600006l2.700012-.399994.900024,2.600006,1.099976.600006v-2l1.200012.299988.599976.799988v.700012l-3,4.199982-.200012,1.099976-1.700012,1.900024v1.099976l3.700012,3.799988,5.299988,7.900024,1.799988,2.099976v1.799988l2.799988,4.599976,2.299988.599976.700012-1.200012-2.099976.299988-3-4.5.200012-1.400024,1.5-.799988v-1.5l-.599976-1.299988.900024-.900024.400024.900024.700012.5v4l-1.200012-.599976-.799988.900024,1.400024,1.599976,1,2.599976,1.200012-.599976,2.299988,1.200012,2.099976,2.200012,1.599976,5.099976,3.099976,4.799988.799988-1.299988,2.799988-.5,3.200012,1.299988.299988,1.700012,3.299988,3.799988v1.099976l2.299988,2.700012-.700012.5v2.700012l2.700012,1.400024h1.5l2.700012-1.799988,1.5.299988,1.099976.400024,2.299988-1.700012.200012-.700012,1.200012.299988,2.400024-1.700012,1.299988-2.299988-.700012-3.200012-.200012-1.299988,1.099976-4,.599976-.200012.599976,1.599976.799988-1.799988-.799988-7.200012-.400024-10.5-1-6.799988-.700012-1.700012-6.599976-11.100006-5.200012-9.100006-2.200012-3.299988-1.299988-3.600006-.200012-3.399994.900024-.299988v-.899994l-1.099976-2.200012-4-4-7.599976-9.700012-5.700012-10.399994-4.299988-10.700012-.599976-3.700012-1.200012-1-.5-3.799988-3.599976.299988-.000061.000214ZM751.100022,574.399976h1.700012l-.700012-1.099976-1,1.099976ZM758.40001,573.3v-.700012l1.599976-.200012,3.700012-3.299988,1.5-.599976,2.400024-.900024.299988,1.299988,1.700012.799988-2.599976,1.200012h-2.400024l-3.900024,2.5h-2.299988v-.099976ZM775.600022,565.700025l-3,1.400024-1,1.299988h1.099976l2.900024-2.700012ZM779.40001,562.8l-1.099976.299988-1.400024,2,1.099976-.200012,1.5-1.599976v-.5h-.099976ZM787.699998,547.099988l-1.700012,5.599976-.799988,1-1,2.599976-1.200012,1.599976-.700012,1.700012-1.900024,2.200012v.900024l2.700012-2.799988,2.400024-3.5.599976-2,2.099976-4.900024-.5-2.400024.000061.000061Z" />
  <path id="GA-1"  d="M751.999986,408.900006v1.399994l-4.200012,6.200012-1.200012.200012,1.5.5v2l-.900024,1.100006-.599976,6-2.299988,6.200012.5,2,.700012,5.100006-3.599976.299988-4-.700012-1.700012-.899994-2.200012,1.399994v2.5l1.400024,2.100006-.5,4.299988-2.099976.600006-1-1.100006-.599976-3.200012-50.099976,3.299988-3.299988-6-.700012-2.200012-1.5-1.5-.5-1.399994.599976-6.299988-2.400024-5.700012.5-2.600006.299988-3.700012,2.200012-3.799988-.200012-1.100006-1.700012-1v-3.200012l-1.799988-1.899994-2.900024-6.100006-12.900024-45.799988,22.900024-2.899994,21.400024-3v1.899994l-2,1-1.400024,3.200012.200012,1.299988,6.099976,3.799988,2.599976-.299988,3.099976,4,.400024,1.700012,4.200012,5.100006,2.599976,1.700012,1.400024.200012,2.200012,1.600006,1.099976,2.200012,2,1.600006,1.799988.5,2.700012,2.700012v1.399994l2.700012,2.799988,5,2.299988,3.599976,6.700012.299988,2.700012,3.900024,2.100006,2.5,4.799988.799988,3.100006,4.200012.399994.900024.399994v-.000031Z" />
  <path id="HI-1"  d="M307.199998,548.500012l-.200012,3.200012,1.700012,1.900024v1.200012c.100006,0-4.700012,4.5-4.700012,4.5v1.200012c-.100006,0,1.799988,3.200012,1.799988,3.200012l1.700012,4.200012v2.599976l-.5,1.200012v3.400024c.100006,0,4.200012,2.099976,4.200012,2.099976l1.100006,1.099976,1.200012-1.099976,2.100006-3.599976,4.5-2.900024,3.299988-.5,2.5-1,1.700012-1.200012,3.200012-3.5-2.799988-1.099976-1.399994-1.400024v-1.700012c.100006,0-.399994-.599976-.399994-.599976h-2l.200012-2.5-.700012-1.200012-2.600006-2.299988-4.5-1.900024-2.799988-.200012-3.299988-2.700012-1.200012-.599976-2.100006.200012-.000061-.000061ZM291.90001,531.500012l-1.100006,1.5v1.700012c-.100006,0,2.600006,2.400024,2.600006,2.400024l1.899994.5.600006,1,.399994,3,3.600006.200012,5.299988-2.599976v-2.5c-.100006,0-1.5-.5-1.5-.5l-3.5-2.599976-1.799988-.299988-2.899994,1.299988-1.5-2.700012-2.100006-.400024v-.000061ZM290.40001,543.000012l.899994-1.400024,2.5-.299988.600006,1.799988h-4v-.099976ZM283.40001,534.3l1.700012,4,3.100006-.599976.299988-2-1.399994-1.5h-3.700012v.099976ZM279.300004,527.599988l-1.100006,2.400024h5l4.799988,1.599976,2.5-1.599976.200012-1.5-4.799988.200012-6.600006-1.099976v-.000061ZM263.300004,517.000012l-1.899994,2.099976-2.899994.599976.799988,2.200012,2.200012,2.799988v1c.100006,0,2.200012-.299988,2.200012-.299988h2.299988l1.700012,1.299988,3.5-.799988v-.700012l-1-.799988-.5-2.099976-.799988-.299988-.5,1-1.200012-1.299988.200012-1.400024-1.799988-3.299988-1.100006-.700012-1.200012.700012h-.000031ZM231.500001,504.599988l-4.199997,2.900024.199997,2.299988,2.399994,1.200012,1.899994,1.299988,2.699997.400024,2.600006-2.200012-.199997-1.900024.800003-1.700012v-1.399994l-1-.899994h-5.199997ZM220.699998,509.399976l-.300003,1.200012-1.899994.900024-.600006,1.799988,1,.799988,1.100006-1.5,1.899994-.599976.399994-2.599976h-1.600006l.000015-.000061Z" />
  <path id="ID-1"  d="M155.500001,177.900006l-24.399994-5.399994,8.5-37.300003,2.899994-5.800003.399994-2.100006.800003-.899994-.899994-2-2.899994-1.199997.199997-4.199997,4-5.800003,2.5-.800003,1.600006-2.300003v-1.599998c-.100006,0,1.699997-1.599998,1.699997-1.599998l3.199997-5.5,4.199997-4.800003-.5-3.199997-3.5-3.099998-1.600006-3.599998,1.100006-4.300003-.699997-4,12.699997-56.099998,14.199997,3-4.800003,22,3.699997,7.400002-1.600006,4.800003,3.600006,4.800003,1.899994.699997,3.899994,8.300003v2.099998l2.300003,3h.899994l1.399994,2.099998h3.199997v1.599998l-7.100006,17-.5,4.099998,1.399994.5,1.600006,2.599998,2.800003-1.400002,3.600006-2.400002,1.899994,1.900002.5,2.5-.5,3.199997,2.5,9.699997,2.600006,3.5,2.300003,1.399994.399994,3v4.100006l2.300003,2.300003,1.600006-2.300003,6.899994,1.600006,2.100006-1.199997,9,1.699997,2.800003-3.300003,1.800003-.600006,1.199997,1.800003,1.600006,4.100006h.899994c0,.100006-8.5,54.899994-8.5,54.899994l-47.900009-8.199997-23.300003-4.699997h.000031Z" />
  <path id="IL-1"  d="M613.699998,260.699994l-1,5.200012v2l2.400024,3.5v.700012l-.299988.899994.900024,1.899994-.299988,2.399994-1.599976,1.799988-1.299988,4.200012-3.799988,5.299988v7h-1.099976l.900024,1.899994v.899994l-2.200012,2.700012v1.100006l1.599976,2.200012v.899994l-3.799988.600006-.599976,1.200012-1.200012-.600006-1,.5-.400024,3.299988,1.700012,1.799988-.400024,2.399994-1.5.299988-6.900024-3-4,3.700012.299988,1.799988h-2.799988l-1.400024-1.5-1.799988-3.799988v-1.899994l.799988-.600006v-1.299988l-1.599976-1.899994-.900024-2.5-2.700012-4.100006-4.799988-1.299988-7.400024-7.100006-.400024-2.399994,2.799988-7.600006-.400024-1.899994,1.200012-1.100006v-1.299988l-2.799988-1.5-3-.700012-3.400024,1.200012-1.299988-2.299988.599976-1.899994-.700012-2.399994-8.599976-8.399994-2.200012-1.5-2.5-5.899994-1.200012-5.399994,1.400024-3.699997.700012-.699997v-2.300003l-.599976-.899994,1-1.5,1.799988-.600006.900024-.300003,1-1.199997v-2.399994l1.700012-2.399994.5-.5v-3.5l-.799988-1.399994-1-.300003-1.099976-1.600006,1-4,3-.800003h2.400024l4.200012-1.800003,1.700012-2.199997v-2.399994l1.200012-1.300003,1.299988-3.199997v-2.600006l-2.900024-3.5h-1.200012l-.900024-1.100006.200012-1.600006-1.700012-1.699997-2.5-1.300003.5-.600006,45.900024-2.800003v4.600006l3.5,4.600006,1.200012,4.100006,1.599976,3.199997,4.099976,50.199997-.000061-.000061Z" />
  <path id="IN-1"  d="M619.40001,209.600003l-5.099976,2.300003-4.700012-1.399994,4.099976,50.200012-1,5.200012v2l2.400024,3.5v.700012l-.299988.899994.900024,1.899994-.299988,2.399994-1.599976,1.799988-1.299988,4.200012-3.799988,5.299988v7h-1.099976l.900024,1.899994,1.099976.799988.599976-1-.700012-1.700012,4.599976-.5.200012,1.200012,1.099976.200012.400024-.899994-.599976-1.299988.299988-.799988,1.299988.799988,1.700012-.399994,1.700012.600006,3.400024,2.100006,1.799988-2.799988,3.5-2.200012,3,3.299988,1.599976-2.100006.299988-2.700012,3.799988-2.299988.200012,1.299988,1.900024,1.200012,3-.200012,1.200012-.700012v-3.399994l2.599976-3.700012,4.599976-4.399994v-1.700012l1.099976-3.799988,2.200012,1,6.700012-4.5-.400024-1.700012-1.5-2.100006,1-1.899994-6.599976-57.199997v-1.399994l-32.5,3.399994-1.700012,1.600006h-.000061Z" />
  <path id="IA-1"  d="M547.100022,177.8l2.099976,1.600006.599976,1.100006-1.599976,3.300003v2.5l1.900024,5.5,2.700012,1.5,3.299988.699997,1.299988,2.800003-.5.600006,2.5,1.300003,1.700012,1.699997-.200012,1.600006.900024,1.100006h1.200012l2.799988,3.5v2.600006l-1.200012,3.199997-1.099976,1.300003v2.399994l-1.799988,2.199997-4.200012,1.800003h-2.400024l-3,.800003-1,4,1.099976,1.600006,1,.300003.900024,1.399994v3.5l-.599976.5-1.700012,2.399994v2.399994l-1,1.199997-.900024.300003-1.799988.600006-1,1.5.700012.899994v2.300003l-.799988.699997-1.5-.800003-1.099976-1.100006-.599976-1.600006-1.700012-1.300003-14.299988.800003-27.200012,1.199997h-25.899994c0-.100006-1.799988-4.5-1.799988-4.5l.700012-2.199997-.799988-3.300003.200012-2.899994-1.299988-.699997-.399994-6.100006-2.799988-5-.200012-3.699997-2.200012-4.300003-1.299988-3.699997v-1.399994l-.600006-1.699997v-2.300003l-.5-.899994-.700012-1.699997-.299988-1.300003-1.299988-1.199997,1-4.300003,1.700012-5.100006-.700012-2-1.299988-.399994-.399994-1.600006,1-.5v-1.100006c.100006,0-1.200012-1.5-1.200012-1.5v-1.600006c.100006,0,2.299988.100006,2.299988.100006h28.200012l36.299988-.899994,18.599976-.699997.200012,2.600006-.000122-.000031Z" />
  <path id="KS-1"  d="M449.300004,254.3l-43.700012-1.200012-36-2-4.799988,67,67.699982,2.899994h62c0,.100006-.5-48-.5-48l-3.200012-.700012-2.600006-4.700012-2.5-2.5.5-2.299988,2.700012-2.600006v-1.200012c.100006,0-1.399994-2.100006-1.399994-2.100006l-.899994,1-2-.600006-2.899994-3h-32.399994v.000061Z" />
  <path id="KY-1"  d="M682.299973,317.3l-20.5,1.399994-5.200012.799988-17.400024,1-2.599976.799988-22.599976,2-.700012-.600006h-3.700012l1.200012,3.200012-.599976.899994-23.299988,1.5,1-2.700012,1.400024.899994.700012-.399994,1.200012-4.100006-1-1,1-2,.200012-.899994-1.299988-.799988-.299988-1.799988,4-3.700012,6.900024,3,1.5-.299988.400024-2.399994-1.700012-1.799988.400024-3.299988,1-.5,1.200012.600006.599976-1.200012,3.700012-.600006v-.899994l-1.400024-2.200012v-1.100006l2.099976-2.700012v-.899994l1.099976.799988.599976-1-.700012-1.700012,4.599976-.5.200012,1.200012,1.099976.200012.400024-.899994-.599976-1.299988.299988-.799988,1.299988.799988,1.700012-.399994,1.700012.600006,3.400024,2.100006,1.799988-2.799988,3.5-2.200012,3,3.299988,1.599976-2.100006.299988-2.700012,3.799988-2.299988.200012,1.299988,1.900024,1.200012,3-.200012,1.200012-.700012v-3.399994l2.599976-3.700012,4.599976-4.399994v-1.700012l1.099976-3.799988,2.200012,1,6.700012-4.5-.400024-1.700012-1.5-2.100006,1-1.899994,1.299988.5h2.200012c0,.100006,1.900024-.700012,1.900024-.700012l2.900024,1.200012,2.200012,3.399994v1l4.099976.700012,2.299988-.200012,1.900024,2.100006,2.200012.200012v-1l1.900024-.799988,3,.799988,1.200012.799988,1.299988-.700012h.900024l.599976-1.700012,3.400024-1.799988.5.799988.799988,2.899994,3.5,1.399994,1.200012,2.100006v1.100006l.5,1-.599976,3.600006,1.900024,1.600006.799988,1.100006,1,.600006v.899994l4.299988,5.600006h1.400024l1.5,1.799988,1.200012.299988h1.400024c0-.100006-4.900024,6.5-4.900024,6.5l-2.900024,1-3,3-.400024,2.200012-2.099976,1.299988v1.700012l-1.5,1.399994-1.799988.5-.5,1.899994-1,.399994-6.900024,4.200012-5.599976,1.399994-.000183.000061ZM584.299973,328.599988l-.700012-.700012.200012-1h1.099976l.700012.700012-.299988,1h-1Z" />
  <path id="LA-1"  d="M592.699998,467.599988l-1.200012-1.799988.299988-1.299988-4.799988-6.799988.900024-4.600006,1-1.399994v-1.399994l-35.900024,2,1.700012-11.899994,2.400024-4.799988,6-8.399994-1.799988-2.5h2v-3.299988l-2.400024-2.5.5-1.700012-1.200012-1-1.599976-7.100006.599976-1.399994-52.299988,1.299988.5,19.899994.700012,3.399994,2.599976,2.799988.700012,5.399994,3.799988,4.600006.799988,4.299988h1v7.299988l-3.400024,6.399994,1.299988,2.299988-1.299988,1.5.700012,3v4.299988l-2.299988,3.5v.799988l-1.799988,1.200012,1,1.799988,1.200012,1.100006,1.599976-1.299988,5.299988-.899994h6.099976c0-.100006,9.599976,3.700012,9.599976,3.700012l8,1,1.5-1.399994,1.799988-.200012,4.799988,2.200012,1.599976-.399994,1.099976-1.5-4.200012-1.799988-2.200012,1-1.099976-.200012-1.400024-2,3.299988-2.200012h1.599976c0-.100006,0,1.600006,0,1.600006h1.5c0-.100006,3.400024-.399994,3.400024-.399994l.400024,2.299988,1.099976.399994.599976,1.899994,4.799988,1,1.700012,1.600006v.700012h-1.200012l-1.5,1.700012,1.700012,1.200012,5.400024,1,2.700012,2.799988,4.400024-1-3.700012.200012v-.600006l2.700012-.700012.200012-1.799988,1.200012-.299988v-1.399994h1.099976v1.700012h2.5c0,.100006.799988-1.799988.799988-1.799988l.900024.299988.200012,2.5,1.200012.200012-1.799988,2,2.599976-.899994,2-1.100006,2.900024-3.299988h-.700012l-1.299988,1.200012h-.400024c0-.100006-.5-.899994-.5-.899994l.900024-1.200012v-2.299988l1.099976-.799988.700012.700012,1-.799988h1c0-.100006.599976,1.200012.599976,1.200012l-.599976,1.899994h2.400024l5.099976,1.700012.5,1.299988,1.599976,1.399994h2.799988c0,.100006,1.299988.799988,1.299988.799988l1.799988-1,.900024-1.700012v-1.700012h-1.400024l-1.200012-1.399994-1.099976-1.100006-3.200012-.899994-2.599976.200012-4.200012-2.399994v-2.299988l1.299988-1,2.400024.600006-3.099976-1.600006.200012-.799988h3.599976l2.599976-3.5-2.599976-1.799988.799988-1.5-1.200012-.799988h-.799988l-2,2.100006v2.100006l-.599976.700012h-1.099976c0-.100006-1.599976-1.5-1.599976-1.5h-1.299988v-1.5l.599976-.700012.799988.700012,1.700012-1.600006.700012-1.600006.799988-.299988-.599976-.700012.000061-.000183ZM582.40001,464.900006l1.900024,1,.799988,1.100006h2.5c0,.100006,1.5.899994,1.5.899994l.200012,1.399994-.400024.600006-.900024-1.5-1.400024,1.200012-.900024,1.399994-2.799988.799988h-1.599976c0,.100006-3.700012-.899994-3.700012-.899994v-1.700012l2.099976-2,1.099976-2.399994h1.599976l.000122.100006ZM577.699998,466.099988v1.100006l-1.799988,2h-1.200012v-2.200012l1.599976-1.5,1.400024.600006Z" />
  <path id="ME-1"  d="M865.199998,123.499997l.599976,4,3.200012,2,.799988,2.199997,2.299988,1.399994,1.400024-.300003,1-3-.799988-2.899994,1.599976-.899994.5-2.800003-.599976-1.300003,3.299988-1.900002-2.200012-2.300003.900024-2.400002,1.400024-2.199997.5,3.199997,1.599976-2,1.299988.900002,1.200012-.800003v-1.699997l3.200012-1.300003.299988-2.900002,2.5-.199997,2.700012-3.699997v-.699997l-.900024-.5v-3.300003l.5-1.099998.200012,1.599998,1-.5-.200012-3.199997-.900024.300003v1.199997l-1.299988-1.400002.900024-1.400002h.599976l1.099976-.300003.5,2.800003,2-.300003,2.900024.699997v-1l-1.099976-1.199997h1.299988v-2.199997l.599976.800003.299988,1.900002,2.099976,1.5.200012-1,.900024-.199997-.299988-.800003.799988-.599998v-1.599998l-1.700012-.199997-2,.699997,1.400024-1.599998.700012-.800003,1.299988-.199997.400024,1.300003,1.700012,1.599998.400024-2.099998,2.299988-1.199997-.900024-1.300003v-1.699997l1.200012.5h.700012l1.700012-1.400002.400024-2.300003,2.200012.300003v-.699997l.299988-1.599998.5,1.400002,1.5-1,2.299988-4.099998v-2.199997l-1.5-2-3-3.199997h-1.900024l-.799988,2.199997-2.900024-3,.299988-.800003v-1.5l-1.599976-4.5-.799988-.199997-.700012.400002h-4.799988l-.299988-3.599998-8.099976-26-7.299988-3.700001h-2.900024l-6.700012,6.5-2.700012-1-1-3.900002h-2.700012l-6.900024,19.5.700012,6.200001-1.700012,2.400002-.400024,4.599998,1.299988,3.699997.799988.199997v1.599998l-1.599976,4.5-1.5,1.400002-1.299988,2.199997-.400024,7.800003-2.400024-1-1.5.400002,11.900024,36.800003.100037-.000015ZM899.799973,98.8l-1,.800003v1.300003l.700012-.800003.900024.800003.400024-.5,1.099976.199997-1-.800003.400024-.800003-1.5-.199997h-.000061ZM898.100022,101.399999l-1,1.099998.5.400002v1h1v-1.800003l-.5-.699997ZM895.100022,99.8l.900024,1.300003,1,.5.299988-1v-1.800003l-1.299988-.699997-.400024,1.199997-.5.5ZM894.100022,104.8l-1.700012-1.699997,1.599976-2.400002.799988.300003.200012,1.099998,1,.800003v1.099998l-1,1-.900024-.199997.000061-.000008Z" />
  <path id="MI-1"  d="M653.499986,204.600003v1.399994l21.5-3.5.5-1.199997,3.900024-5.899994v-4.300003l.799988-2.100006,2.200012-.800003,2-7.800003,1-.5,1,.600006-.200012.600006-1.099976.800003.299988.899994.799988.399994,1.900024-1.399994.400024-9.800003-1.599976-2.300003-1.200012-3.699997v-2.5l-2.299988-4.399994v-1.800003l-1.200012-3.300003-2.299988-3-2.900024-1-4.799988,3-2.5,4.600006-.200012.899994-3,3.5-1.5-.199997-2.900024-2.800003v-3.399994l1.400024-1.899994,2-.199997,1.200012-1.699997.200012-4,.799988-.800003h1.099976c0-.100006.900024-1.800003.900024-1.800003l-.200012-9.600006-.299988-1.300003-1.200012-1.199997-1.700012-1v-1.800003l.599976-.600006,1.799988.800003-.299988-1.699997-1.900024-2.699997-.700012-1.600006-1.099976-1.100006h-2.200012l-8.099976-2.900002-1.400024-1.699997-3.099976-.300003-1.200012.300003-4.400024-2.300003h-1.400024l.5,1h-2.700012v.5l.599976.599998-2.5,2.099998v1.800003l1.599976,2.299995,1.5.199997v.600006l-1.5.5h-2.099976c0-.100006-2.799988,2.399994-2.799988,2.399994v2.5l.5,5.800003-2.200012,3.399994.799988-4.5-.799988-.600006-.900024,5.300003-1-2.300003.5-2.300003-.5-1,.599976-1.300003-.599976-1.100006,1-1v-1.199997l-1.299988.600006-1.299988,3.100006-.700012.699997-1.299988,2.399994-1.700012-.199997v1.199997h-1.700012l.200012,1.5.200012,2-3,1.199997v1.300003l1.099976,1.699997v5.199997l-1.400024,4.399994-1.700012,2.5,1.200012,1.399994.799988,3.5-1,2.5-.200012,2.100006,1.700012,3.399994,2.5,4.899994,1.200012,1.899994,1.599976,6.899994v8.800003l-1,3.899994-2,3.199997-.900024,3.699997-2,3-1.200012,1,32.400024-3.399994.100159.000076ZM557.699998,107.8l3,3.800003,17,3.800003,1.400024,1,4,.800003.700012.5,2.799988-.199997,4.900024.800003,1.400024,1.5-1,1,.799988.800003,3.799988.699997,1.200012,1.199997v4.399994l-1.200012,2.800003h2c0,.100006,1-.699997,1-.699997l.900024.800003-1.099976,3.100006,1,1.600006,1.200012.300003.799988-1.800003,2.900024-4.600006,1.599976-6,2.299988-2-.5-1.599998.5-.900002,1,1.599998-.299988,2.199997,2.900024-2.199997.200012-2.300003,2.099976.599998.799988-1.599998.700012.599998-.700012,1.5-1,.5-1,2,1.400024,1.800003,1.099976-.5-.5-.699997,1-1.5,1.900024-1.699997h.799988l.200012-2.599998,2-1.800003,7.900024-.5,1.900024-3.099998,3.799988-.300003,3.799988,1.199997,4.200012,2.699997.700012-.199997-.200012-3.5.700012-.199997,4.5,1.099998,1.5-.199997,2.900024-.699997,1.700012.400002h1.799988v-1l-.700012-.900002-1.5-.199997-1.099976-.800003.5-1.400002-.799988-.300003h-2.599976v-.900002l1.099976-.800003.599976.800003.5-1.800003-.700012-.699997.700012-.199997-1.400024-1.300003.299988-1.300003v-1.900002h-1.200012l-1.5,1h-1.900024l-.5,1.900002-1.900024.199997-.299988-1.199997h-2.200012l-1,1.300003h-.700012l-.200012-.900002-2.599976.400002v-4.800003l.900024-2h-.700012l-1.799988,1h-2.200012l-3.799988,2.699997-6.200012.300003-4.099976.800003-1.900024,1.5-1.400024,1.300003-2.5,1.699997-.299988.800003-.599976-1.699997-1.299988-.599998v.599998l.700012.699997v1.300003l-1.5-.599998h-.599976l-.299988,1.199997-2-1.900002-1.299988-.199997-1.299988,1.5h-3.200012l-.5-1.5-2-1.900002-1.299988-1.599998v-.699997l-1.099976-1.400002-2.599976-1.199997h-3.299988l-1.099976-1h-1.400024l-.700012.400002-2.200012,2.199997-.700012,1.099998-1-.699997.200012-1,.799988-2.099998,3.200012-5,.799988-.199997,1.700012-1.900002.700012-1.599998,3-.599998.799988-.599998v-1l-.599976-.5-4.5.199997-2,.5-2.599976,1.199997-1.200012,1.199997-1.700012,2.199997-1.799988,1-3.299988,3.400002-.400024,1.599998-7.400024,4.599998-4,.5-1.799988.400002-2.299988,3-1.799988.699997-4.400024,2.300003,1.900024.699997-.100281-.000023ZM658.40001,111.600003h3.799988l.599976-.400002-.200012-2-1.700012-1.800003h-1.900024v.599998l1.099976.400002-1.599976.800003-.299988,1-.599976-.599998-.400024.800003,1.299988,1.199997h-.099915ZM583.299973,69.700002l-2.299988.199997-2.700012,1.900002-7.099976,5.300003.799988,1,1.799988.300003,2.799988-2-1.099976-.5,2.299988-1.599998h1l3-1.900002v-.900002l1.5-1.800003ZM624.40001,132.499997v1l2.099976,1.600006-.200012-2.399994-1.900024-.199997.000061-.000015ZM623.699998,135.3h1.099976v1h-1v-1h-.099976ZM645.100022,113.999997v.900002l.799988-.199997v-.5s-.799988-.199997-.799988-.200005ZM649.799973,117.100003v-1.099998l-1.700012-.199997-.599976-.400002h-.900024l-.400024.300003.900024.400002,1.099976,1.099998h1.599976l.000061-.100006ZM631.799973,118.3v1.099998l-.400024.699997.200012,2.199997.400024.300003h.700012l.5-.800003v-1.599998l-.200012-.599998v-1.099998l-1.200012-.199997Z" />
  <path id="MN-1"  d="M454.90001,63.399999l-1.100006,2.800003.799988,1.400002-.299988,5.099998-.5,1.099998,2.700012,9.099998,1.299988,2.5.700012,14,1,2.699997-.399994,5.800003,2.899994,7.400002.299988,5.800003v2.100006c-.100006,0-.200012,2.199997-.200012,2.199997l-.899994,2-3.100006,1.899994-.299988,1.199997,1.700012,2.5.399994,1.800003,2.600006.600006,1.5,1.899994-.200012,39.5h28.200012l36.300018-.899994,18.599976-.699997-1.099976-4.5-.200012-3-2.200012-3-2.799988-.699997-5.200012-3.600006-.599976-3.300003-6.299988-3.100006-.200012-1.300003h-3.299988l-2.200012-2.600006-2-1.300003.700012-5.100006-.900024-1.600006.5-5.399994,1-1.800003-.299988-2.699997-1.200012-1.300003-1.799988-.300003v-1.699997l2.799988-5.800003,5.900024-3.900002-.400024-13,.900024.400002.599976-.5v-1.099998l1-.599998,1.400024,1.199997h.700012l-1.200012-2.300003,4.299988-3.099998,3.099976-3.699997,1.599976-.800003,4.700012-5.900002,6.299988-5.800003,3.900024-2.099998,6.299988-2.699997,7.599976-4.5-.599976-.400002-3.700012.699997h-2.799988l-1-1.5-1.400024-.900002-9.799988,1.199997-1-2.800003h-1.599976l-1.700012.699997-3.700012,3.099998h-4.099976l-2.099976-1-.299988-1.699997-3.900024-.800003-.599976-1.599998-.700012-1.300003-1,.900002h-2.599976l-9.900024-5.400002h-2.900024l-.799988-.699997-3.099976,1.300003-.799988,1.300003-3.299988.800003-1.299988-.199997v-1.699997l-.700012-.900002h-5.899994l-.399994-1.400002h-2.600006l-1.100006.400002-2.399994-1.699997.299988-1.400002-.600006-2.400002-.700012-1.099998-.200012-3-1-3.099998-2.100006-1.599998h-2.899994v8c.100006,0-30.799988-.400002-30.799988-.400002l2.399994,7.300003-.000031.000023Z" />
  <path id="MS-1"  d="M613.999986,463.400006h-5c0,.100006-2.400024-1.399994-2.400024-1.399994l-7.900024,2.5-.900024-.700012-.5.200012v1.600006l-.700012.100006-2.599976,2.700012h-.700012c0-.100006-.599976-.799988-.599976-.799988l-1.200012-1.799988.299988-1.299988-4.799988-6.799988.900024-4.600006,1-1.399994v-1.399994l-35.900024,2,1.700012-11.899994,2.400024-4.799988,6-8.399994-1.799988-2.5h2v-3.299988l-2.400024-2.5.5-1.700012-1.200012-1-1.599976-7.100006.599976-1.399994,1.200012-1.5.5-3-1.5-2.299988-.5-2.200012.900024-.700012v-.799988l-1.700012-1.100006v-.700012l1.5-.899994-1.200012-1.100006,1.700012-7.100006,3.400024-1.600006v-.799988l-1.099976-1.399994,2.900024-5.399994h1.900024l1.5-1.200012-.299988-5.200012,3.099976-4.5,1.799988-.600006-.5-3.100006,38.299988-2.600006,1.299988,2-1.299988,67,4.400024,33.200012-1.5,1.299988-.000061-.000061Z" />
  <path id="MO-1"  d="M545.499986,243.699994l-1.099976-1.100006-.599976-1.600006-1.700012-1.300003-14.299988.800003-27.200012,1.199997h-25.899994c0-.100006,1.299988,1.199997,1.299988,1.199997l-.299988,1.399994,2.100006,3.699997,3.899994,6.300003,2.899994,3,2,.600006.899994-1,1.5,2.100006v1.200012c-.100006,0-2.799988,2.600006-2.799988,2.600006l-.5,2.299988,2.5,2.5,2.600006,4.700012,3.200012.700012.5,48.100006.200012,10.799988,39.099976-.700012,39.799988-2,1.599976,2.5v2.200012l-1.700012,1.5-2.799988,5.100006,11.200012-.799988,1-2,1.200012-.5v-.700012l-1.200012-1.100006-.599976-1,1.700012.200012.799988-.700012-1.400024-1.5,1.400024-.5v-1l-.5-1v-1.299988l-.700012-.700012.200012-1h1.099976l.700012.700012-.299988,1,.799988.700012.799988-1,1-2.700012,1.400024.899994.700012-.399994,1.200012-4.100006-1-1,1-2,.200012-.899994-1.299988-.799988h-2.799988l-1.400024-1.5-1.799988-3.799988v-1.899994l.799988-.600006v-1.299988l-1.599976-1.899994-.900024-2.5-2.700012-4.100006-4.799988-1.299988-7.400024-7.100006-.400024-2.399994,2.799988-7.600006-.400024-1.899994,1.200012-1.100006v-1.299988l-2.799988-1.5-3-.700012-3.400024,1.200012-1.299988-2.299988.599976-1.899994-.700012-2.399994-8.599976-8.399994-2.200012-1.5-2.5-5.899994-1.200012-5.399994,1.400024-3.699997-1.5-.800003v-.000122Z" />
  <path id="MT-1"  d="M237.199998,125.3l57.299988,7.899994,51,5.300003,2-20.699997,5.200012-66.699997-53.5-5.599998-54.300003-7.700001-65.900009-12.5-4.800003,22,3.699997,7.400002-1.600006,4.799999,3.600006,4.800003,1.899994.699997,3.899994,8.300003v2.099998l2.300003,3h.899994l1.399994,2.099998h3.199997v1.599998l-7.100006,17-.5,4.099998,1.399994.5,1.600006,2.599998,2.800003-1.400002,3.600006-2.400002,1.899994,1.900002.5,2.5-.5,3.199997,2.5,9.699997,2.600006,3.500008,2.300003,1.399994.399994,3v4.100006l2.300003,2.300003,1.600006-2.300003,6.899994,1.600006,2.100006-1.199997,9,1.699997,2.800003-3.300003,1.800003-.600006,1.199997,1.800003,1.600006,4.100006h.899994c0,.100006,2-10.600006,2-10.600006h.000031Z" />
  <path id="NE-1"  d="M392.699998,185.900006l38,1.600006,3.399994,3.199997,1.700012.199997,2.100006,2h1.799988c0-.100006,1.799988-2.100006,1.799988-2.100006l1.5.600006,1-.699997.700012.5.899994-.399994.700012.399994.899994-.399994,1,.5,1.399994-.600006,2,.600006.600006,1.100006,6.100006,2.199997,1.200012,1.300003.899994,2.600006,1.799988.699997,1.5-.199997.5.899994v2.300003l.600006,1.699997v1.399994l1.299988,3.699997,2.200012,4.300003.200012,3.699997,2.799988,5,.399994,6.100006,1.299988.699997-.200012,2.899994.799988,3.300003-.700012,2.199997,1.799988,4.399994,1.299988,1.300003-.299988,1.399994,2.100006,3.699997,3.899994,6.300003h-32.399994l-43.700012-1.200012-36-2,1.399994-22.100006-33.100006-2.399994,3.700012-44.199997,51.100006,3.5.000061.000015Z" />
  <path id="NV-1" d="M157.800004,291.599988l-3.399994,17.5-2.399994,2.899994h-2l-1.199997-2.700012-3.699997-1.399994-3.5.600006-1,13.600006.5,4.899994-.5,2.899994-1.399994,3-70.400002-105-1.099998-3.5,16.400002-63.100006,46.999992,11.199997,24.399994,5.399994,23.300003,4.699997-21,109-.000015.000031Z" />
  <path id="NM-1" d="M347.699998,327.699994h-.799988l-7.899994,99.300018-31.799988-2.600006-34.399994-3.600006-.299988,3,2,2.200012-30.800003-4.100006-1.399994,10.200012-15.699997-2.200012,17.399994-124.100006,52.600006,6.5,51.700012,4.799988-.600006,10.600006h-.000061Z" />
  <path id="NY-1" d="M863.100022,176.400006h-1.299988c0,.100006-.5,1.100006-.5,1.100006l1.799988-1.100006ZM832.499986,199.100003l.700012.600006,1.299988-.300003,1.099976.300003.900024-1.300003h1.900024l2.400024-.899994,5.099976-2.100006-.5-.5-1.900024.800003-2,.899994.200012-.800003,2.599976-1.100006.799988-1h1.200012c0,.100006,4.099976-2.199997,4.099976-2.199997v.699997l-4.200012,3,4.5-2.800003,1.700012-2.199997h1.5c0-.100006,4.5-3.199997,4.5-3.199997l3.200012-3.100006,3-2.300003,1-1.199997h-1.700012c0-.100006-1,1.100006-1,1.100006l-.200012.699997-.900024.699997-.799988-1.100006-1.700012,1v.899994l-1-.199997.5-.899994-1.200012-.699997-.599976.899994.900024.300003.200012.5-.299988.5-1.400024,2.600006h-1.900024l.900024-1.800003.900024-.600006.299988-1.699997,1.400024-1.600006.900024-.800003,1.5-.699997-1.200012-.199997-.700012.899994h-.700012l-1.099976.800003-.200012,1-2.200012,2.100006-.400024.899994-1.400024.899994-7.700012,1.899994.200012.899994-.900024.699997-2,.300003-1-.600006-.200012,1.100006-1.099976-.399994v1l-1.099976-.100006-1.200012.5-.200012,1.100006h-1l.200012,1h-.700012l.200012,1-1.799988.399994-1.5,2.300003-.200012,2.100006.000061.000031ZM831.699998,198.699994l-1.599976.399994v1l-.700012,1.600006.599976.699997,2.400024-2.300003v-.899994l-.700012-.5ZM821.600022,103.499997l-.599976,1.900002,1.400024.900002-.400024,1.5.5,3.199997,2.200012,2.300003-.400024,2.199997.599976,2-.400024,1-.299988,3.800003,3.099976,6.699997-.799988,1.800003.900024,2.199997.900024-1.600006,1.900024,1.5,3,14.199997-.5,2,1.099976,1-.5,15,.700012,1,2.799988,16.300003,1.799988,1.5-3.5,3.399994,1.700012,2.199997-1.299988,3.300003-1.5,1.699997-1.5,2.300003-.200012-.699997.400024-5.899994-14.599976-4.899994-1.599976-1.100006-1.900024.300003-3-2.199997-3-5.800003h-2l-.400024-1.5-1.700012-1.100006-70.5,13.899994-.799988-6,4.299988-3.899994.599976-1.699997,3.900024-2.5.599976-2.399994,2.299988-2,.799988-1.100006-1.700012-3.300003-1.700012-.5-1.799988-3-.200012-3.199997,7.599976-3.899994,8.200012-1.600006h4.400024l3.200012,1.600006h.900024c0-.100006,1.799988-1.699997,1.799988-1.699997l3.400024-.699997h3l2.599976-1.300003,2.5-2.600006,2.400024-3.100006,1.900024-.399994,1.099976-.5.400024-3.199997-1.400024-2.699997-1.200012-.699997,2-1.300003v-1.800003h-1.599976l-2.299988-1.399994v-3.100006l6.099976-6.100006.700012-2.400002,3.700012-6.300003,5.900024-6.400002,2.099976-1.699997h2.5l20.599976-5.099998s.799988,1.699997.799988,1.700005Z" />
  <path id="NC-1" d="M819.199998,294.900006l-29.099976,6.100006-39.400024,7.299988-29.400024,3.5v5.200012h-1.5c0-.100006-1.400024,1.100006-1.400024,1.100006l-2.400024,5.200012-2.599976-1.100006-3.5,2.5-.700012,2.100006-1.5,1.200012-.799988-.799988v-1.5l-.900024-.200012-4,3.299988-.599976,3.399994-4.700012,2.399994-.5,1.200012-3.200012,2.600006-3.599976.5-4.599976,3-.799988,4.100006-1.299988.899994h-1.5c0-.100006-1.400024,1.200012-1.400024,1.200012v4.899994l21.299988-3,4.400024-1.899994h1.299988c0-.100006,7.299988-4.399994,7.299988-4.399994l23.200012-2.200012.400024.5-.200012,1.399994.700012.299988,1.200012-1.5,3.299988,3v2.600006l19.799988-2.799988,24.5,17.100006,4-2.200012,3-.700012h1.700012l1.099976,1.100006.799988-2,.599976-5,1.700012-3.899994,5.400024-6.100006,4.099976-3.5,5.400024-2.299988,2.5-.399994,1.299988.399994.700012,1.100006,3.299988-6.600006,3.299988-5.299988-.700012-.299988-4.400024,6.799988-.5-.799988,2-2.200012-.400024-1.5-2-.5,1,1.299988h-1.200012c0,.100006-1.200012-1.700012-1.200012-1.700012l-1.200012,2-1.599976.200012,1-2.700012.700012-1.700012-.200012-2.899994h-2.200012c0-.100006.900024-1,.900024-1l1.099976.299988h2.700012c0,.100006.799988-.399994.799988-.399994h2.299988l2-1.899994.200012-3.200012,1.299988-1.399994,1.200012-.200012,1.299988-1-.5-3.700012-2.200012-3.799988-2.700012-.200012-.900024,1.600006-.5-1-2.700012.200012-1.200012.399994-1.900024,1.200012-.299988-.399994h-.900024l-1.799988,1.200012-2.599976.5v-1.299988l.799988-1,1,.700012h1l1.700012-2.100006,3.700012-1.700012,2-2.200012h2.400024l.799988,1.299988,1.700012.799988-.5-1.5-.299988-1.600006-2.799988-3.100006-.299988-1.399994-.400024,1-.900024-1.299988-1.299988-1.600006h.000183ZM826.199998,325.900006l2.700012-2.5,4.599976-3.299988v-3.700012l-.400024-3.100006-1.700012-4.200012,1.5,1.399994,1,3.200012.400024,7.600006-1.700012.399994-3.099976,2.399994-3.200012,3.200012v-1.399994h-.099976ZM828.100022,306.599988l-.900024-.200012v1l2.5,2.200012-.200012-1.399994-1.400024-1.600006h.000061ZM830.999986,308.699994l-1.400024-2.799988-2.200012-3.399994-2.400024-3-2.200012-4.299988-.799988-.700012,2.200012,4.299988.299988,1.299988,3.400024,5.5,1.799988,2.100006,1.299988,1h.000061Z" />
  <path id="ND-1" d="M454.90001,63.399999l-1.100006,2.800003.799988,1.400002-.299988,5.099998-.5,1.099998,2.700012,9.099998,1.299988,2.5.700012,14,1,2.699997-.399994,5.800003,2.899994,7.400002.299988,5.800003v2.100006c-.100006,0-29.600006-.399994-29.600006-.399994l-46-2.099998-39.200012-2.900002,5.200012-66.699997,44.5,3.400002,55.299988,1.599998,2.399994,7.300003.000031-.000023Z" />
  <path id="OH-1" d="M675.90001,203.600003l1.900024-.399994,3,1.300003,2.099976.600006.700012.899994h1l1-1.5,1.299988.800003h1.5v1l-3.200012.5-2,1.100006,1.900024.800003,1.599976-1.5,2.400024-.399994,2.200012,1.5h1.5c0-.100006,2.5-1.800003,2.5-1.800003l3.599976-2.100006,5.200012-.300003,4.900024-5.899994,3.799988-3.100006,9.299988-5.100006,4.900024,29.899994-2.200012,1.199997,1.400024,2.100006v2.199997l.5,2-1.099976,3.399994v5.399994l-1.099976,3.600006.5,1.100006-.400024,2.199997-1.099976.5-2,3.300003-1.799988,2h-.599976l-1.799988,1.699997-1.299988-1.199997-1.5,1.799988-.299988,1.200012h-1.299988l-1.299988,2.200012v2.100006l-.900024.5,1.400024,1.100006v1.899994l-1,.200012-.700012.799988-1,.5-.599976-2.100006-1.599976-.5-1,2.299988-.299988,2.200012-1.099976,1.299988,1.299988,3.600006-1.5.799988-.400024,3.5h-1.5l-3.200012,1.399994-1.200012-2.100006-3.5-1.399994-.799988-2.899994-.5-.799988-3.400024,1.799988-.599976,1.700012h-.900024l-1.299988.700012-1.200012-.799988-3-.799988-1.900024.799988v1l-2.200012-.200012-1.900024-2.100006-2.299988.200012-4.099976-.700012v-1l-2.200012-3.399994-2.900024-1.200012-1.900024.799988h-2.200012c0-.100006-1.299988-.600006-1.299988-.600006l-6.599976-57.199997,21.400024-3.5.900024,1.100006h-.000183Z" />
  <path id="OK-1"  d="M491.699998,393.400006l-4.600006-3.799988-2.200012-.899994-.5,1.600006-5.100006.299988-.600006-1.5-5,2.5-1.600006-.700012-3.700012.299988-.600006,1.700012-3.600006.899994-1.299988-1.200012h-1.200012c0,.100006-2-1.700012-2-1.700012l-2.100006.700012-2-.5-1.799988-2-2.5,4.200012-1.200012.799988-1-1.799988.299988-2-1.200012-.700012-2.299988,2.5-1.700012-1.200012v-1.5c-.100006,0-1.399994.5-1.399994.5l-2.600006-1.700012-3,2.600006-2.299988-1.100006.700012-2.100006h-2.299988c0,.100006-1.899994-2.899994-1.899994-2.899994l-3.5-1.100006-2,2.299988-2.299988-2.200012-1.399994.399994h-2c0,.100006-3.5-1.799988-3.5-1.799988h-2.299988c0,.100006-1.200012-.600006-1.200012-.600006l-.5-2.899994-2.299988-1.700012-1.100006,1.5-1.399994-1-1.200012-.399994-1.100006,1-1.5-.299988-2.5-3-2.700012-1.299988,1.399994-42.700012-52.600006-3.200012.600006-10.600006,16.5,1,67.699982,2.899994h62c0,.100006.200012,10.899994.200012,10.899994l4.100006,24.399994-.700012,39-6.399994-1.899994.000061.000092Z" />
  <path id="OR-1"  d="M84.099999,161.3l46.999992,11.199997,8.5-37.300003,2.899994-5.800003.399994-2.100006.800003-.899994-.899994-2-2.899994-1.199997.199997-4.199997,4-5.800003,2.5-.800003,1.600006-2.300003v-1.599998c-.100006,0,1.699997-1.599998,1.699997-1.599998l3.199997-5.5,4.199997-4.800003-.5-3.199997-3.5-3.099998-1.600006-3.599998-30.300003-7.300003-2.800003,1-5.400002-.900002-1.800003-.900002-1.5,1.199997-3.300003-.400002-4.5.5-.900002.699997-4.199997-.400002-.800003-1.599998-1.199997-.199997-4.400002,1.300003-1.599998-1.099998-2.199997.800003-.199997-1.800003-2.300003-1.199997-1.5-.199997-1-1.099998-3,.300003-1.199997-.800003h-1.199997l-1.199997.900002-5.5.699997-6.599998-4.199997,1.099998-5.599998-.400002-4.099998-3.199997-3.700001h-3.699997l-.400002-1,.400002-1.200001-.699997-.799999h-1l-1.099998,1.400002-1.5-.200001-.5-1.099998h-1l-.700001.5-2-1.900002v4.299999l-1.299999,1.299999-1.099998,3.5v2.300003l-4.599998,12.300003-13.200001,31.299995-3.200001,4.599998h-1.599998v2l-5.200001,7.099998-.299999,3.300003,1,1.300003v2.399994c.1,0-1.1,1.100006-1.1,1.100006l-1.200001,3v5.699997c.1,0,1.299999,2.899994,1.299999,2.899994l66.1,18.600006h.100006Z" />
  <path id="PA-1"  d="M816.499986,184.199994l-1.900024.300003-3-2.199997-3-5.800003h-2l-.400024-1.5-1.700012-1.100006-70.5,13.899994-.799988-6-4.200012,3.399994h-.900024c0,.100006-2.700012,3.100006-2.700012,3.100006l-3.299988,1.699997,4.900024,29.899994,3.200012,19.699997,17.400024-2.899994,60.5-11.800003,1.200012-2.100006,1.5-1.100006,1.599976-.300003,1.599976.600006,1.400024-1.699997,1.599976-.600006,1.799988-3,1.599976-2.300003,3.299988-2.600006-4.200012-3.199997-2.099976-1.100006-1-2.800003-2.700012-.899994-.5-3.600006,1-1,.700012-2-1.5-1.800003,3-5.399994v-2.199997l1.700012-2.5-1.599976-1.100006.000061.000046Z" />
  <path id="SC-1"  d="M762.499986,345.000012l-19.700012,2.799988v-2.600006l-3.400024-3-1.200012,1.5-.700012-.299988.200012-1.399994-.400024-.5-23.200012,2.200012-7.299988,4.299988h-1.299988c0,.100006-4.400024,2-4.400024,2v1.899994l-2,1-1.400024,3.200012.200012,1.299988,6.099976,3.799988,2.599976-.299988,3.099976,4,.400024,1.700012,4.200012,5.100006,2.599976,1.700012,1.400024.200012,2.200012,1.600006,1.099976,2.200012,2,1.600006,1.799988.5,2.700012,2.700012v1.399994l2.700012,2.799988,5,2.299988,3.599976,6.700012.299988,2.700012,3.900024,2.100006,2.5,4.799988.799988,3.100006,4.200012.399994.799988-1.5h.599976l1.799988-1.5.5-2,3.200012-2.100006.299988-2.399994-1.200012-.899994.799988-.700012.799988.399994,1.299988-.399994,1.799988-2.100006,3.799988-1.799988,1.599976-2.399994v-.700012l4.900024-4.399994v-.5l-1-.799988,1.099976-1.5h.799988l.400024.5.700012-.799988h1.299988l.599976-1.5,2.299988-2.100006-.299988-5.399994.799988-2.299988,3.599976-6.200012,2.400024-2.200012,2.200012-1.100006-24.5-17.100006.000305-.000061Z" />
  <path id="SD-1"  d="M386.699998,120.700002l46,2.099998,29.5.399994v2.199997c-.100006,0-1,2-1,2l-3.100006,1.899994-.299988,1.199997,1.700012,2.5.399994,1.800003,2.600006.600006,1.5,1.899994-.200012,39.5h-2.200012c0-.100006-.100006,1.5-.100006,1.5l1.299988,1.5v1.100006c-.100006,0-1.100006.5-1.100006.5l.399994,1.600006,1.299988.399994.700012,2-1.700012,5.100006-1,4.300003,1.299988,1.199997.299988,1.300003.700012,1.699997-1.5.199997-1.799988-.699997-.899994-2.600006-1.200012-1.300003-6.100006-2.199997-.600006-1.100006-2-.600006-1.399994.600006-1-.5-.899994.399994-.700012-.399994-.899994.399994-.700012-.5-1,.699997-1.5-.600006-1.799988,2h-1.799988c0,.100006-2.100006-1.899994-2.100006-1.899994l-1.700012-.199997-3.399994-3.199997-38-1.600006-51.100006-3.5,3.899994-43.899994,2-20.699997,39.200012,2.900002.000061.000015Z" />
  <path id="TN-1"  d="M611.100022,359.900006l45.700012-4,22.900024-2.899994v-4.899994l1.5-1.299988h1.5c0,.100006,1.299988-.799988,1.299988-.799988l.799988-4.100006,4.599976-3,3.599976-.5,3.200012-2.600006.5-1.200012,4.700012-2.399994.599976-3.399994,4-3.299988.799988.200012v1.5l.900024.799988,1.5-1.200012.700012-2.100006,3.5-2.5,2.599976,1.100006,2.400024-5.200012,1.400024-1.200012h1.5c0,.100006,0-5.100006,0-5.100006l.299988-.700012-4.599976.5-.200012,1-28.900024,3.299988-5.599976,1.399994-20.5,1.399994-5.200012.799988-17.400024,1-2.599976.799988-22.599976,2-.700012-.600006h-3.700012l1.200012,3.200012-.599976.899994-23.299988,1.5-.799988,1-.799988-.700012h-1v1.299988l.599976,1v1l-1.5.5,1.400024,1.5-.799988.700012-1.700012-.200012.599976,1,1.200012,1.100006v.700012l-1.200012.5-1,2v.600006l1.5,1-.400024.700012h-1.5v.5l.900024.899994v.799988l-1.299988.200012-.5.799988-1.599976.200012-.900024.899994.599976.899994h1.099976c0-.100006.5.799988.5.799988l-1.599976,1.299988.400024,1.5-2-.600006v.700012l.299988,1.100006-.299988,1.399994-1.299988-.799988-.799988.799988h1.099976v1.600006l-.599976,1,1.099976.899994-.299988,1.5.799988.700012-.700012,1-1.200012-.5-.900024,2.200012-1.599976.700012,38.299988-2.600006.099976.000061Z" />
  <path id="TX-1"  d="M272.499986,423.8l.299988-3,34.399994,3.600006,31.799988,2.600006,7.899994-99.299988h.799988l52.600006,3.200012-1.399994,42.700012,2.700012,1.299988,2.5,3,1.5.299988,1.100006-1,1.200012.399994,1.399994,1,1.100006-1.5,2.299988,1.700012.5,2.899994,1.200012.700012h2.299988c0-.100006,3.5,1.799988,3.5,1.799988h2c0-.100006,1.399994-.5,1.399994-.5l2.299988,2.200012,2-2.299988,3.5,1.100006,1.899994,3h2.299988c0-.100006-.700012,2-.700012,2l2.299988,1.100006,3-2.600006,2.600006,1.700012,1.299988-.5v1.5c.100006,0,1.799988,1.200012,1.799988,1.200012l2.299988-2.5,1.200012.700012-.299988,2,1,1.799988,1.200012-.799988,2.5-4.200012,1.799988,2,2,.5,2.100006-.700012,2,1.799988h1.200012c0-.100006,1.299988,1.100006,1.299988,1.100006l3.600006-.899994.600006-1.700012,3.700012-.299988,1.600006.700012,5-2.5.600006,1.5,5.100006-.299988.5-1.600006,2.200012.899994,4.600006,3.799988,6.399994,1.899994,2.600006,2.299988,2.800018-1.299988,3.200012.799988.200012,11.899994.5,19.899994.700012,3.399994,2.599976,2.799988.700012,5.399994,3.799988,4.600006.799988,4.299988h1v7.299988l-3.400024,6.399994,1.299988,2.299988-1.299988,1.5.700012,3v4.299988l-2.299988,3.5v.799988l-1.799988,1.200012,1,1.799988,1.200012,1.100006-3.5.299988-8.399994,3.899994-3.5,1.399994-1.799988,1.799988-.700012-.5,2.100006-2.299988,1.799988-.700012.5-.899994h-2.899994c0-.100006-.700012-.899994-.700012-.899994l.799988-2-.899994-1.799988h-.600006l-2.399994,1.299988-1.899994,2.600006.299988,1.700012,3.299988,3.399994,1.299988.299988v.799988l-2.299988,1.600006-4.899994,4-4,3.899994-3.200012,1.399994-5,3-3.700012,2-4.5,1.900024-4.100006,2.5,3.200012-3v-1.099976l.600006-.799988-.200012-1.799988h-1.5c0-.100006-1.100006,1.399994-1.100006,1.399994l-2.600006,1.300018-1.799988-1.200012-.299988-1.700012h-1.5l.799988,2.200012,1.399994.700012,1.200012.900024,1.799988,1.599976-.700012.799988-3.899994,1.700012h-1.700012l-1.200012-1.099976-.5,2.099976.5,1.099976-2.700012,2-1.5.200012-.799988.700012-.399994,1.700012-1.799988,3.299988-1.600006.700012-1.600006-.599976-1.799988,1.099976.299988,1.400024,1.299988.799988,1,.799988-1.799988,3.5-.299988,2.799988-1,1.700012-1.399994,1-2.899994.400024,1.799988.599976,1.899994-.599976-.399994,3.200012h-1.100006l.200012,1.099976.299988,1.400024-1.299988.900024v3.099976l1.600006,1.400024.600006,3.099976-.399994,2.200012-1,.400024.399994,1.5,1.100006.400024.799988,1.700012v2.599976l1.100006,2.099976,2.200012,2.599976v.700012c-.100006,0-2.299988-.200012-2.299988-.200012l-1.600006,1.400024.200012,1.400024-.899994-.299988-1.399994-.200012-3.399994-3.700012-2.299988-.599976h-7.100006l-2.799988-.799988-3.600006-3-1.700012-1h-2.100006l-3.200012-2.5-5.399994-1.599976v-1.299988l-1.399994-1.799988-.899994-4.700012-1.100006-1.700012-1.700012-1.400024v-1.599976l-1.399994-.599976.600006-2.599976-.299988-2.200012-1.299988-1.400024.700012-3-.799988-3.200012-1.700012-1.400024h-1.100006l-4-3.5v-1.900024c.100006,0-.700012-1.700012-.700012-1.700012l-.799988-.200012-.899994-2.400024-2-1.599976-2.899994-2.5-.200012-2.099976-1-.700012.200012-1.599976.5-.700012-1.399994-1.5v-.700012c.100006,0-1.899994-2.200012-1.899994-2.200012v-2.100006c.100006,0-2.600006-4.899994-2.600006-4.899994v-1.700012c-.100006,0-1.899994-3.100006-1.899994-3.100006l-5.100006-4.799988v-1.100006l-3.299988-1.700012v-1.799988c-.100006,0-1.299988-.399994-1.299988-.399994v-.700012l-.799988-.200012-2.100006-2.799988h-.799988l-.700012-.600006-1.299988,1.100006h-2.200012l-2.600006-1.100006h-4.600006l-4.200012-2.100006-1.299988,1.899994-2.200012-.600006-3.299988,1.200012-1.700012,2.799988-2,3.200012-1.100006,4.399994-1.399994,1.200012h-1.100006c0,.100006-.899994,1.700012-.899994,1.700012l-1.299988.600006v1.799988c-.100006,0-3,.100006-3,.100006l-1.799988-1.5h-1l-2-2.899994-3.600006-.5-1.700012-2.299988-1.299988-.200012-2.100006-.799988-3.399994-3.399994.200012-.799988-1.600006-1.200012h-1c0-.100006-3.399994-3.200012-3.399994-3.200012v-2c-.100006,0-2.399994-4-2.399994-4l.200012-1.600006-.700012-1.299988.799988-1.5v-2.399994c-.100006,0-2.700012-4.100006-2.700012-4.100006l-.600006-4.200012-1.600006-1.600006v-1l-1.200012-.200012-.700012-1.100006-2.399994-1.700012h-.899994c0-.100006-1.899994-1.700012-1.899994-1.700012v-1.100006l-2.899994-1.799988-.600006-2.100006-2.600006-2.299988-3.200012-4.399994-3-1.299988-2.100006-1.799988.200012-1.200012-1.299988-1.399994-1.700012-3.700012-2.399994-1-2-2.200012-.000061-.000031ZM447.40001,562.099988h.799988l-.600006-4.700012-3.5-12.299988-.200012-8.099976,4.899994-10.5,6.100006-8.200012,7.200012-5.099976v-.700012h-.799988l-2.600006,1-3.600006,2.299988-.700012,1.5-8.200012,11.599976-2.799988,7.900024v8.799988l3.600006,12,.399994,4.5h.000031Z" />
  <path id="UT-1"  d="M223.399995,212.699994l3.300003-21.899994-47.899994-8.199997-21,108.999985,46.199997,8.200012,40,6,11.499985-88.300003-32.100006-4.800003h.000015Z" />
  <path id="VA-1"  d="M824.90001,260.199994l-1.099976,2.799988.5,1.100006.400024-1.100006.799988-3.100006-.599976.299988-.000061.000031ZM790.299973,253.199994l-.700012-1h1c0-.100006,1-1,1-1l.400024-1.800003-.200012-.5v-.5l-.200012-.699997-.599976-.5h-.400024c0-.100006-.5-.5-.5-.5l-.599976-.600006h-1.599976c0-.100006-.400024-.5-.400024-.5v-.5l-1.599976-.600006-.799988.300003h-1.200012c0-.100006-.700012-.800003-.700012-.800003l-.5-.199997-.200012-.699997.599976-.800003v-.899994l-1.200012-.199997-1-.899994h-.900024c0,.100006-1.599976-.199997-1.599976-.199997l-.400024.699997-.400024,1.600006-.5,2.300003-10-5.199997-.200012.899994.900024,1.600006-.799988,2.300003v2.899994l-1.099976.800003-.5,2.100006-.900024.799988-1.400024,1.799988-.900024.799988-1,2.5-2.400024-1.100006-2.299988,8.5-1.299988,1.600006-2.799988-.5-1.299988-1.899994-2.299988-.700012v4.700012l-1.5,1.700012.400024,1.5-2.099976,2.200012.400024,1.899994-3.700012,6.299988-1,3.299988,1.5,1.200012-1.5,1.899994v1.399994l-2.200012,2-.700012-1.100006-4.299988,3.100006-1.5-1-.599976,1.399994.799988.5-.5.899994-5.5,2.399994-3-1.799988-.799988,1.700012-1.900024,1.799988h-2.299988c0,.100006-4.400024-2.200012-4.400024-2.200012v-1.5l-1.599976-.700012.799988-1.200012-.700012-.600006-4.900024,6.600006-2.900024,1-3,3-.400024,2.200012-2.099976,1.299988v1.700012l-1.5,1.399994-1.799988.5-.5,1.899994-1,.399994-6.900024,4.200012,28.900024-3.299988.200012-1,4.599976-.5-.299988.700012,29.400024-3.5,39.400024-7.299988,29.099976-6.100006-.599976-1.200012h.400024c0-.100006.900024.799988.900024.799988v-1.399994l-.400024-1.899994,1.599976,1.200012.900024,2.100006v-1.299988l-3.400024-5.5v-1.200012l-.700012-.799988-1.299988.700012.5,1.399994h-.799988l-.400024-1-.599976.899994-.900024-1.100006h-2.099976c0-.100006-.200012.600006-.200012.600006l1.5,2.100006-1.400024-.700012-.5-1-.400024.799988h-.799988c0,.100006-1.5,1.799988-1.5,1.799988l.299988-1.600006v-1.399994l-1.5-.700012-1.799988-.5-.200012-1.700012-.599976-1.299988-.599976,1.100006-1.700012-1-2,.299988.200012-.899994,1.5-.200012.900024.5,1.700012-.799988.900024.399994.5,1v.700012l1.900024.399994.299988.899994.900024.399994.900024,1.200012,1.400024-1.600006h.599976v-2.100006l-1.400024,1-.599976-.899994,1.5-.200012-1.200012-.899994-1.200012.600006v-1.700012l-1.799988.200012-2.200012-1.100006-1.799988-2.200012,3.599976,2.200012.900024.299988,1.700012-.799988-1.700012-.899994.599976-.600006-1-.5.799988-.200012-.299988-.899994,1.099976.899994.400024-.799988.400024,1.299988,1.200012.799988.599976-.5-.5-.600006v-2.5l-1.200012-.100006-1.599976-.799988.900024-1.100006h-2c0-.100006-.400024-.600006-.400024-.600006l-1.400024.600006-1.400024-.799988-.5-1.200012-2.099976-1.200012-2.099976-1.799988-2.200012-1.899994,3,1.299988.900024,1.200012,2.099976.700012,2.299988,2.5.200012-1.700012.599976,1.299988,2.299988.5v-4l-.799988-1.100006,1.099976.399994v-1.600006l-3-1.399994-1.599976-.200012-1.299988-.200012.299988-1.200012-1.5-.299988v-.600006h-1.900024l-.200012.799988-.700012-1h-2.700012l-1-.399994-.200012-1-1.200012-.600006-.400024-1.5-.599976-.399994-.700012,1.100006-.900024.200012-.900024.700012h-1.5l-.900024-1.299988.400024-3.100006.5-2.399994.599976.5.299988-.399994.000122.000092ZM812.199998,264.8h.900024v-.700012h-.799988c0,.100006-.099976.700012-.099976.700012h-.000061ZM819.699998,279.000012l-1,2.700012,1.200012-1.299988-.200012-1.399994v-.000031ZM817.90001,263.699994l.700012.299988-.200012,1.899994-.5-.5-1.299988,1,1,.399994-1.799988,4.399994v8.100006l2,3.100006.5-1.5.400024-2.700012-.299988-2.299988.700012-.899994-.200012-1.399994,1.200012-.600006-.599976-.5.5-.700012.799988,1.100006-.200012,1.100006-.400024,3.899994,1.099976-2.200012.400024-3.100006v-3l-.200012-2,.599976-2.299988,1.099976-1.799988v-2.200012l.400024-.899994-4.599976,1.600006-.700012.799988-.400024.899994v.000031Z" />
  <path id="WA-1"  d="M152.099992,78.399999l.699997,4-1.100006,4.300003-30.300003-7.300003-2.800003,1-5.400002-.900002-1.800003-.900002-1.5,1.199997-3.300003-.400002-4.5.5-.900002.699997-4.199997-.400002-.800003-1.599998-1.199997-.199997-4.400002,1.300003-1.599998-1.099998-2.199997.800003-.199997-1.800003-2.300003-1.199997-1.5-.199997-1-1.099998-3,.300003-1.199997-.800003h-1.199997l-1.199997.900002-5.5.699997-6.599998-4.199997,1.099998-5.599998-.400002-4.099998-3.199997-3.700001h-3.699997l-.400002-1,.400002-1.200001-.699997-.799999h-1l-2.099998-1.400002-1.200001.400002h-2l-.700001-1.599998-1.599998-.299999,2.5-7.5-.700001,6,.5.5v-2l.799999-.200001,1.099998,2.299999-.5-2.200001,1.200001-4.200001,1.799999.400002-1.099998-2-1,.299999-1.5-.400002.200001-4.200001.200001,1.5.900002.5.599998-1.599998h3.199997l-2.200001-1.200001-1.700001-1.900002-1.400002,1.599998,1.200001-3.099998-.299999-4.599998-.200001-3.599998.900002-6.1-.5-2-1.400002-2.1v-4l.5-2.7,2-2.3-.700001-1.4.200001-.6h.900002c0,.1,7.799999,7.700001,7.799999,7.700001l4.699997,1.9,5.099998,2.5h3.199997c0-.1.199997,2.9.199997,2.9l1-1.6h.699997l.599998,2.700001.5-2.6,1.400002-.200001.5.700001-1.099998.6v1.6l.800003-1.5h1.099998l-.400002,2.6-1.099998-.799999.400002,1.4v1.5l-.900002.700001-2.5,2.900002,1.199997-3.4-1.599998.4-.400002,2.099998-3.800003,2.799999-.400002,1-2.099998,2.200001v1h2.099998l2.400002-.200001.5-.900002-3.900002.5v-.599998l2.599998-2.799999,1.800003-.799999,1.900002-.200001,1-1.599998,3-2.299999v-1.4h1.099998v3.999998h-1.400002l-.599998.799999-1.099998-.900002.300003,1.099998v1.700001l-.699997.700001-.300003-1.599998-.800003.799999.699997.599998-.900002,1.099998h1.300003l.699997-.5v2l-.900002,1.900002-.900002,1v1.799999l-1.099998-.200001-.199997-1.400002.900002-1.099998-.800003-.5-.800003.700001-.699997,2.200001-.800003.900002v-2l.699997-1.099998-.199997-1.099998-1.199997,1.200001v2.200001l-.5.400002-2.099998-.400002-1.300003,1.200001,2.199997-.599998-.199997,2.200001,1-1.799999.400002,1.400002.5-1,.699997,1.799999h.699997l.699997-.799999h.599998l2-2,.199997-1.200001.800003.599998.300003.900002.699997-.299999v-1.200001h1.400002l.199997-2.900002v-2.700001l.800003.299999-.699997-2.099998,1.400002-.799999.199997-2.400002,2.300003-2.200001h1c0,.1.300003-1.299999.300003-1.299999l-1.199997-1.4v-3.5l-.900002.9.699997,2.9h-.599998c0,.1-.599998-1.799999-.599998-1.799999l-.599998-.5.300003-2.299999h1.800003c0-.1.300003.6.300003.6l.300003-1.6-1.599998-1.700001-.599998-1.6-.199997,2,.900002,1.1-.699997.4-1-.799999-1.800003,1.299999,1.5.5.199997,2.4-.300003,1.799999.900002-1.299999,1.400002,2.299999-.400002,1.9h-1.5v-1.200001l-1.5-1.200001.5-3-1.900002-2.6,2.699997-3,.599998-4.1h.900002l1.400002,3.200001v-2.6l1.199997.299999v-3.3l-.900002-.8-1.199997,2.5-1-3h1.300003c0-.1-1.5-5-1.5-5l1.900002-.6,25.400002,7.5,31.699997,8,23.600006,5.5s-12.699997,56.099997-12.699997,56.099989ZM73.399995,39.000001h.5v.799999l-.400002.299999v.599998l-.599998.400002-.199997-.900002.5-.400002s.199997-.799999.199997-.799995ZM78.399995,34.700002l-1.199997,1.900002v.799999l.300003.200001.5-.599998h1.099998s-.699997-2.299999-.700005-2.300003ZM78.000001,13.099999l.5.6,1.300003-.299999.199997-1,1.199997-1.8-1-.4-.699997,1.599999v-1.6l-1.199997.2-.699997,1.400001s.400002,1.299999.399994,1.299999ZM81.199998,7.6l.699997,1.5-.900002.2-.800003.4-.199997-2.4s1.199997.3,1.200005.3ZM78.500001,6l-1.099998-.2.5,1.4.599998-1.2ZM77.500001,8.5l.800003.4-.400002,1.1,1.699997-.5-.199997-2.2-.900002-.2-1,1.4ZM74.799996,8.1l.300003,2.7,1.599998,1.299999.599998-1.9-1.099998-2.2h-1.400002v.1ZM76.699998,7l-1.099998-1h-.900002c0,.1,1.800003,1.6,1.800003,1.6l.199997-.6ZM79.899995,0h-1.199997v.8l1.199997.6V0ZM79.000001,32.500001l.400002-2.700001h-1.099998l-.199997,1.900002s.900002.799999.899994.799999Z" />
  <path id="WV-1"  d="M713.600022,292.3l-.799988,1.200012,1.5.700012v1.5l4.5,2.299988h2.299988c0-.100006,1.900024-1.899994,1.900024-1.899994l.799988-1.700012,3,1.799988,5.5-2.399994.5-.899994-.799988-.5.599976-1.399994,1.5,1,4.299988-3.100006.700012,1.100006,2.299988-2v-1.399994l1.400024-1.899994-1.5-1.200012,1-3.299988,3.700012-6.299988-.400024-1.899994,2.099976-2.200012-.400024-1.5,1.400024-1.700012v-4.700012l2.400024.700012,1.299988,1.899994,2.799988.5,1.299988-1.600006,2.299988-8.5,2.400024,1.100006,1-2.5.900024-.799988,1.400024-1.799988.900024-.800003.5-2.100006,1.200012-.800003v-2.899994l.700012-2.300003-.900024-1.600006.200012-.899994,10,5.199997.5-2.300003.400024-1.600006.400024-.699997-.900024-.399994.200012-1.600006-1-.5-.200012-.699997h-.700012l-.799988-1.199997.200012-1-2.599976.399994-2.200012-1.600006-1.400024.300003-.900024,1.399994h-1.299988l-1.700012,2.899994-3.299988.399994-1.900024-1-2.599976,3.800003-2.200012-.300003-3.099976,3.899994-.900024,1.600006-1.799988,1.600006-1.700012-11.399994-17.400024,2.899994-3.200012-19.699997-2.200012,1.199997,1.400024,2.100006v2.199997l.5,2-1.099976,3.399994v5.399994l-1.099976,3.600006.5,1.100006-.400024,2.199997-1.099976.5-2,3.300003-1.799988,2h-.599976l-1.799988,1.699997-1.299988-1.199997-1.5,1.799988-.299988,1.200012h-1.299988l-1.299988,2.200012v2.100006l-.900024.5,1.400024,1.100006v1.899994l-1,.200012-.700012.799988-1,.5-.599976-2.100006-1.599976-.5-1,2.299988-.299988,2.200012-1.099976,1.299988,1.299988,3.600006-1.5.799988-.400024,3.5h-1.5l-3.200012,1.399994v1.100006l.5,1-.599976,3.600006,1.900024,1.600006.799988,1.100006,1,.600006v.899994l4.299988,5.600006h1.400024l1.5,1.799988,1.200012.299988h1.400024c0-.100006.700012.5.700012.5h-.000305Z" />
  <path id="WI-1"  d="M601.199998,138.8l-2.900024.800003.200012,2.300003-2.400024,3.399994-.200012,3.100006.599976.699997.799988-.699997.5-1.600006,2-1.100006,1.599976-4.199997,3.5-1.100006.799988-3.300003.700012-.899994.400024-2.100006,1.799988-1.100006v-1.5l1-.899994h1.400024v2.100006h-1c0,.100006.5,1.300003.5,1.300003l-.700012,2.199997h-.599976c0,.100006-1.200012,4.600006-1.200012,4.600006l-.700012.5-2.799988,7.199997-.299988,4.199997.599976,2v1.300003l-2.299988,1.899994.299988,1.899994-.900024,3.100006.299988,1.600006.400024,3.699997-1.099976,4.100006-1.5,5,1,1.5-.299988.300003.799988,1.699997-.5,1.100006,1.099976.899994v2.699997l1.299988,1.5-.400024,3,.299988,4-45.900024,2.800003-1.299988-2.800003-3.299988-.699997-2.700012-1.5-2-5.5v-2.5l1.700012-3.300003-.599976-1.100006-2.099976-1.600006-.200012-2.600006-1.099976-4.5-.200012-3-2.200012-3-2.799988-.699997-5.200012-3.600006-.599976-3.300003-6.299988-3.100006-.200012-1.300003h-3.299988l-2.200012-2.600006-2-1.300003.700012-5.100006-.900024-1.600006.5-5.399994,1-1.800003-.299988-2.699997-1.200012-1.300003-1.799988-.300003v-1.699997l2.799988-5.800003,5.900024-3.900002-.400024-13,.900024.400002.599976-.5v-1.099998l1-.599998,1.400024,1.199997h3.299988l6.799988-2.599998.299988-1h1.200012l.700012-1.199997.400024.800003,1.799988-.900002,1.799988-1.699997.299988.5,1-1,2.200012,1.599998-.799988,1.599998-1.200012,1.400002.5,1.5-1.400024,1.599998.400024.900002,2.299988-1.099998v-1.400002l3.299988,1.900002,1.900024.699997,1.900024.699997,3,3.800003,17,3.800003,1.400024,1,4,.800003.700012.5,2.799988-.199997,4.900024.800003,1.400024,1.5-1,1,.799988.800003,3.799988.699997,1.200012,1.199997v4.399994l-1.200012,2.800003h2c0,.100006,1-.699997,1-.699997l.900024.800003-1.099976,3.100006,1,1.600006,1.200012.300003-.299988,3-.000061-.099976ZM551.699998,101.499997h-.5l-1.5,1.699997.200012.5,1.5-.599998v-.599998l.900024-.300003-.599976-.699997h-.000061ZM553.299973,100.399999l-1,.300003-.200012.699997h.900024l.299988-1ZM551.999986,98.8l-.200012.900002h1.700012l.599976-.400002v-1l-2.099976.5ZM554.799973,95.8l-.299988,1.900002,1.200012-.5v-1.400002h-.900024ZM613.100022,127.699994l-2,.300003-.400024,1.300003,1.299988,1.699997,1.099976-3.300003h.000061Z" />
  <path id="WY-1"  d="M345.499986,138.499997l-51-5.300003-57.300003-7.899994-2,10.699997-8.5,54.800003-3.300003,21.899994,32.100006,4.800003,44.899994,5.699997,37.5,3.399994,3.700012-44.199997,3.899994-43.900009v.000015Z" />
  <path id="NJ-1"  d="M835.499986,210.8l-.599976-8.199997-1.200012-1.399994v1.399994l.5.600006h-1.099976l-.599976-.399994-1.299988-.199997-.900024.600006-1.200012-1.600006.700012-1.699997v-1l1.700012-.699997.799988-2.100006.400024-5.899994-14.599976-4.899994-1.799988,2.5v2.199997l-2.900024,5.399994,1.5,1.800003-.700012,2-1,1,.5,3.600006,2.700012.899994,1,2.800003,2.099976,1.100006,4.200012,3.199997-3.299988,2.600006-1.599976,2.300003-1.799988,3-1.599976.600006-1.400024,1.699997-1,2.199997-.299988,2.100006.799988.899994.400024,2.300003,1.200012.600006,2.400024,1.5,1.799988.800003,1.599976.800003v1.100006l.900024.100006,1.099976-1.199997.799988.399994,2.099976.199997-.200012,2.899994.200012,2.5,1.799988-.699997,1.5-3.899994,1.599976-4.800003,2.900024-2.800003.599976-3.5-.599976-1.199997,1.700012-2.899994v-1.199997l-.700012-1.100006,1.200012-2.699997-.299988-3.600006-.000122-.000061Z" />
  <path id="CT-1"  d="M860.90001,160.3v-.300003l-15,3.399994v.699997l-.900024.300003-.5-.699997-10.5,2.399994,2.799988,16.300003,1.799988,1.5-3.5,3.399994,1.700012,2.199997,5.400024-4.5,1.700012-1.300003h.799988l2.400024-3.100006h1.400024c0,.100006,2.900024-1,2.900024-1h2.099976l5.299988-2.699997,2.799988-.899994,1-1,1.5.5-.400024-1.800003.400024-1.100006-3.200012-12.300003v.000031Z" />
  <path id="VT-1"  d="M848.199998,100.700002l1.099976-3.5-1.200012-2.300003-27.299988,6.900002.799988,1.699997-.599976,1.900002,1.400024.900002-.400024,1.5.5,3.199997,2.200012,2.300003-.400024,2.199997.599976,2-.400024,1-.299988,3.800003,3.099976,6.699997-.799988,1.800003.900024,2.199997.900024-1.600006,1.900024,1.5,3,14.199997-.5,2,1.099976,1,12.400024-2.699997-2.099976-2.600006v-1.399994l.599976-1.300003.200012-2.5-.900024-1.800003.5-2.600006-.700012-1.5-.700012-4.5.700012-1.100006-.200012-2.199997,1.299988-1.899994-.400024-1.900002,1-1.900002-.5-1.5.5-2.5-1.400024-3.400002.700012-1.5,2.099976-1,.599976-1.300003,1.400024-.400002,1.099976-2.099998v-1.300003l.299988-1.699997-2.099976-2.800003.000122.000031Z" />
  <path id="DE-1"  d="M823.299973,242.600003l-3.299988-2.600006-.5-1.699997-1.799988-1-.200012-3.699997-2.099976-2.199997-1.099976-.800003-1.200012-1.100006-.400024-3.199997.299988-2.100006,1-2.199997-1.599976-.600006-1.599976.300003-1.5,1.100006-1.200012,2.100006,7.599976,27.100006,10.900024-2.300003-2.200012-7.600006-1.099976.5h-.000061Z" />
  <path id="NH-1"  d="M868.999986,129.499997l-3.200012-2-.599976-4-11.900024-36.800003-.5,1.699997h-1.299988c0,.099998-1-1-1-1l-1.900024,1.400002-.5,6.099998,1.200012,2.300003-1.099976,3.5,2.099976,2.800003-.400024,1.699997v1.300003l-1,2.099998-1.400024.400002-.599976,1.300003-2.099976,1-.700012,1.5,1.400024,3.400002-.5,2.5.5,1.5-1,1.900002.400024,1.899994-1.299988,1.899994.200012,2.199997-.700012,1.100006.700012,4.5.700012,1.5-.5,2.600006.900024,1.800003-.200012,2.5-.5,1.300003v1.399994l2,2.600006,18.400024-3.800003,1-1.5.299988-1.699997,1.900024-.600006.5-1.100006,1.700012-1.100006,1.299988.300003.799988-4.800003-2.299988-1.399994-.799988-2.199997h-.000122Z" />
  <path id="RI-1"  d="M868.600022,176.499997v1.199997h1l.5-.600006-.799988-1.300003-.700012.699997v.000015ZM872.100022,164.400006l-2.599976-1.300003-.599976-2.199997h-.799988l-.700012-2.600006-6.5,2,3.200012,12.300003-.400024,1.100006.400024,1.800003,5.599976-3.600006v-3l-.700012-.800003.400024-.600006v-1.300003l-1-.699997,1.200012-.399994-.900024-1.600006,1.799988.699997.299988,1.399994.700012,1.199997-1.400024-.800003,1.099976,1.699997-.299988,1.199997-.599976-1.100006v2.5l.599976-.899994.400024.899994,1.299988-1.5-.200012-2.5,1.400024,3.100006,1-.899994-1.400024-3-1.299988-1.100006v.000031Z" />
  <path id="MA-1"  d="M891.799973,160.600003v1.800003l1-2.800003-1.200012-3.300003-1.299988-2.699997-2.299988-2.100006-1.799988-.399994-1.299988,1.100006,1.200012,1,.400024-.899994h.799988l1.5,3.600006.299988-.899994,1.200012,2.100006-1.099976.300003-1.599976,1.199997-.799988.899994h-3.800049l-1-.699997-.599976-2-.799988-1.100006h-1.799988l-.200012-2.699997-2.5-2.600006h-1.799988l-1.099976-.600006-.299988.800003-.900024.199997-.599976-1,.799988-.699997-.900024-1.199997,1.299988-.300003-.400024-.800003.900024-1-.200012-.800003,3-2.399994v-1.100006l-.799988-1.300003-1.099976,1.300003-1-.399994-1.700012-3.300003-1.299988-.300003-1.700012,1.100006-.5,1.100006-1.900024.600006-.299988,1.699997-1,1.5-18.400024,3.800003-12.400024,2.699997-.5,15,.700012,1,10.5-2.399994.5.699997.900024-.300003v-.699997l14.900024-3.399994v.300003l6.599976-2,.700012,2.600006h.799988l.599976,2.199997,2.599976,1.300003,1.299988,1.100006,1.400024,3,.400024-1,1.099976.199997,1.200012-1.100006-.400024-1.199997.299988-1.100006h1.200012l1-1.199997v-1.300003l1,.100006.299988,1.300003.5.600006-.5,1.899994-3.299988,3.300003h1.200012l2-1.899994,2-2.100006,2.200012-1.199997v-1.199997l1.700012-1,.900024.300003,3.5-2.300003.700012,1-.000122.099945ZM885.199998,167.199994l-1.099976-.199997-.599976-.899994-.799988.199997-1.200012,1-.599976,2.100006-1,.800003,1.200012.600006,1.099976-1.300003,2.799988-.699997,1.299988-.300003-.5-1.899994-.599976.600006-.000061-.000031ZM892.999986,166.3l-1.5,1.5h-2.299988v.800003l.900024.399994h3.400024l.900024-.600006v-1.300003l-1.799988-1.800003.400024,1-.000122.000015Z" />
  <path id="MD-1"  d="M812.299973,260.3l-.799988-1.899994-1.299988.899994.799988,1.799988,1.700012.799988-.400024-1.600006v.000031ZM812.299973,264.199994h.799988v-1.799988h-.799988v1.799988ZM808.100022,224.900006l-60.5,11.800003,1.700012,11.399994,1.799988-1.600006.900024-1.600006,3.099976-3.899994,2.200012.300003,2.599976-3.800003,1.900024,1,3.299988-.399994,1.700012-2.899994h1.299988l.900024-1.399994,1.400024-.300003,2.200012,1.600006,2.599976-.399994-.200012,1,.799988,1.199997h.700012l.200012.699997,1,.5-.200012,1.600006.900024.399994,1.599976.300003h.900024l1,.800003,1.200012.199997v.899994l-.599976.800003.200012.699997.5.199997.700012.699997h1.200012l.799988-.199997,1.700012.600006v.5l.299988.399994h.599976c0,.100006,1,.100006,1,.100006l.599976.600006,1-1.699997,2.599976,1.800003-1.700012,2.600006-.400024,1.799988-1,.899994h-1l.700012,1.100006-.299988.399994.299988.5-.799988,2.100006.400024,2.299988,1.099976.799988,1.599976-1.299988.799988-.700012.599976.200012,1,1.299988,1,1,1.700012.799988.400024-.200012,1.200012.299988,1-.5,1.400024.299988,1.700012,1.399994,1.200012.200012.400024-.200012,1.5,1.200012h.700012v-1l-.400024-1.399994-1.599976-2-.400024-2.799988-1.599976-1.399994-1.299988-1.399994-.700012-3.399994-.900024-1.100006.5-1.300003v-2.100006l.5-1.300003-.5-.300003,1.099976-1-.900024-1.199997.200012-.699997-1.299988-1.300003-1.299988-.600006,1.799988-.5.599976-2.199997.700012-.899994.900024.399994,2.599976-3.600006-1-1.300003.799988-1.100006,1.5-.399994-.200012,2.100006.299988.699997-.5.600006.5.800003-1.400024.199997-1.099976,1.399994-1.099976,2.399994.200012,1.699997.900024,2.100006,1-1,.400024,1.699997-1.200012.699997-.900024-.899994-.900024,1-.200012,2.399994.599976,1,1-1.399994.900024-1.100006,1,.899994v1.600006l-.900024-.699997-1,1v3.399994l.5-.300003.400024-1.100006h1.299988v.800003l1.400024.600006-1.700012.300003-.599976,1v.899994l1,.600006-1.5.799988,1.400024,1.700012,1,1.100006.200012,1.200012,2,1,1.099976-.5.700012-.600006-.5-.799988.700012-1.600006.799988.600006-.400024,1.299988.700012.799988,1.900024.399994-1.200012.299988v2l1.599976-1-.200012,1.5.799988.5-.400024.700012.299988,2.5,1.299988-.600006.400024-.899994,1.299988-.200012.700012-.799988,4.599976-1.600006.299988-1.100006.799988-1.399994.200012-2.100006.700012-.899994.599976.600006v2.5l-1.299988,2.200012.599976-.299988,1-1.799988v-8.400009l-10.900024,2.300003-7.599976-27.100006.200073.000031Z" />
  <path id="NE-2"  d="M677.539 69.7h72.711s1.75 0 1.75 1.75v25.2999s0 1.75 -1.75 1.75h-72.711s-1.75 0 -1.75 -1.75v-25.2999s0 -1.75 1.75 -1.75" />  
  </g> 
  <g id="text">
	<text id="text-NE-special"  transform="translate(687.49965 88.150113)">    <tspan x="6" y="1">NE-II</tspan>  </text>
  </g>
  
</svg>